<?xml version="1.0" encoding="UTF-8"?>
<!DOCTYPE svg PUBLIC "-//W3C//DTD SVG 1.1//EN" "http://www.w3.org/Graphics/SVG/1.1/DTD/svg11.dtd">
<!-- Creator: CorelDRAW 2017 -->
<svg xmlns="http://www.w3.org/2000/svg" xml:space="preserve" width="133.5mm" height="38mm" version="1.1" style="shape-rendering:geometricPrecision; text-rendering:geometricPrecision; image-rendering:optimizeQuality; fill-rule:evenodd; clip-rule:evenodd"
viewBox="0 0 13350 3800"
 xmlns:xlink="http://www.w3.org/1999/xlink">
 <defs>
  <style type="text/css">
   <![CDATA[
    .str0 {stroke:#FEFEFE;stroke-width:8.82;stroke-miterlimit:10}
    .fil1 {fill:none;fill-rule:nonzero}
    .fil0 {fill:#FEFEFE;fill-rule:nonzero}
   ]]>
  </style>
 </defs>
 <g id="Слой_x0020_1">
  <metadata id="CorelCorpID_0Corel-Layer"/>
  <polygon class="fil0" points="5449.37,2788.05 5529.2,2788.05 5529.2,1150.17 5449.37,1150.17 "/>
  <polygon class="fil0" points="6404.77,2788.05 6404.77,1223.84 5843.53,1223.84 5843.53,1150.18 7048.34,1150.18 7048.34,1223.84 6484.6,1223.84 6484.6,2788.05 "/>
  <polygon class="fil0" points="8764.57,2788.05 8764.57,1243.49 8115.99,2788.05 8091.05,2788.05 7442.46,1243.49 7442.46,2788.05 7362.66,2788.05 7362.66,1150.18 7489.88,1150.18 8103.53,2616.11 8717.16,1150.18 8844.37,1150.18 8844.37,2788.05 "/>
  <polygon class="fil0" points="13272.15,2788.05 12643.57,2007.18 12014.99,2788.05 11910.18,2788.05 12598.7,1948.23 11947.61,1150.18 12054.86,1150.18 12643.57,1884.38 13232.25,1150.18 13339.53,1150.18 12688.45,1945.8 13376.93,2788.05 "/>
  <path class="fil0" d="M4738.42 1943.33c147.18,-29.46 294.36,-169.44 294.36,-375.71 0,-270.12 -187.08,-417.44 -453.99,-417.44l-541.48 0 0 73.66 541.48 0c244.44,0 366.68,157.16 366.68,343.78 0,189.09 -122.24,341.31 -366.68,341.31l-541.48 0 0 73.66 551.46 0c259.44,0 389.15,179.28 389.15,365.9 0,223.45 -144.71,365.87 -389.15,365.87l-551.46 0 0 73.69 551.46 0c291.86,0 476.43,-162.1 476.43,-442.03 0,-189.05 -149.68,-375.71 -326.78,-402.69z"/>
  <polygon class="fil0" points="9367.15,1982.59 10283.7,1982.59 10283.7,1908.92 9367.15,1908.92 "/>
  <polygon class="fil0" points="9367.15,1223.84 10301.2,1223.84 10301.2,1150.18 9367.15,1150.18 "/>
  <polygon class="fil0" points="9367.15,2788.05 10301.2,2788.05 10301.2,2714.36 9367.15,2714.36 "/>
  <polygon class="fil0" points="10756.67,2788.05 11693.16,2788.05 11693.16,2714.36 10756.67,2714.36 "/>
  <polygon class="fil0" points="10756.67,1223.84 11693.16,1223.84 11693.16,1150.18 10756.67,1150.18 "/>
  <polygon class="fil0" points="10756.67,1982.59 11675.66,1982.59 11675.66,1908.92 10756.67,1908.92 "/>
  <path class="fil0" d="M953.68 2241.14c0,17.04 -13.79,30.84 -30.87,30.84 -16.97,0 -30.83,-13.8 -30.83,-30.84 0,-17.07 13.86,-30.87 30.83,-30.87 17.08,0 30.87,13.8 30.87,30.87z"/>
  <path class="fil1 str0" d="M953.68 2241.14c0,17.04 -13.79,30.84 -30.87,30.84 -16.97,0 -30.83,-13.8 -30.83,-30.84 0,-17.07 13.86,-30.87 30.83,-30.87 17.08,0 30.87,13.8 30.87,30.87z"/>
  <path class="fil0" d="M2573.32 2024.4c0,17 -13.8,30.83 -30.87,30.83 -17,0 -30.83,-13.83 -30.83,-30.83 0,-17.08 13.83,-30.87 30.83,-30.87 17.07,0 30.87,13.79 30.87,30.87z"/>
  <path class="fil1 str0" d="M2573.32 2024.4c0,17 -13.8,30.83 -30.87,30.83 -17,0 -30.83,-13.83 -30.83,-30.83 0,-17.08 13.83,-30.87 30.83,-30.87 17.07,0 30.87,13.79 30.87,30.87z"/>
  <path class="fil0" d="M2077.52 3491.46c0,17 -13.79,30.83 -30.83,30.83 -17.07,0 -30.83,-13.83 -30.83,-30.83 0,-17.04 13.76,-30.87 30.83,-30.87 17.04,0 30.83,13.83 30.83,30.87z"/>
  <path class="fil1 str0" d="M2077.52 3491.46c0,17 -13.79,30.83 -30.83,30.83 -17.07,0 -30.83,-13.83 -30.83,-30.83 0,-17.04 13.76,-30.87 30.83,-30.87 17.04,0 30.83,13.83 30.83,30.87z"/>
  <path class="fil0" d="M378.65 1595.49c0,17.04 -13.83,30.87 -30.83,30.87 -17.07,0 -30.87,-13.83 -30.87,-30.87 0,-17.04 13.8,-30.83 30.87,-30.83 17,0 30.83,13.79 30.83,30.83z"/>
  <path class="fil1 str0" d="M378.65 1595.49c0,17.04 -13.83,30.87 -30.83,30.87 -17.07,0 -30.87,-13.83 -30.87,-30.87 0,-17.04 13.8,-30.83 30.87,-30.83 17,0 30.83,13.79 30.83,30.83z"/>
  <path class="fil0" d="M1276.3 2885.39c0,17.07 -13.83,30.9 -30.87,30.9 -17.04,0 -30.84,-13.83 -30.84,-30.9 0,-17.01 13.8,-30.84 30.84,-30.84 17.04,0 30.87,13.83 30.87,30.84z"/>
  <path class="fil1 str0" d="M1276.3 2885.39c0,17.07 -13.83,30.9 -30.87,30.9 -17.04,0 -30.84,-13.83 -30.84,-30.9 0,-17.01 13.8,-30.84 30.84,-30.84 17.04,0 30.87,13.83 30.87,30.84z"/>
  <path class="fil0" d="M2589.86 2600.87c0,17 -13.79,30.83 -30.83,30.83 -17,0 -30.87,-13.83 -30.87,-30.83 0,-17.07 13.87,-30.87 30.87,-30.87 17.04,0 30.83,13.8 30.83,30.87z"/>
  <path class="fil1 str0" d="M2589.86 2600.87c0,17 -13.79,30.83 -30.83,30.83 -17,0 -30.87,-13.83 -30.87,-30.83 0,-17.07 13.87,-30.87 30.87,-30.87 17.04,0 30.83,13.8 30.83,30.87z"/>
  <path class="fil0" d="M3188.21 1279.08c0,17.01 -13.83,30.83 -30.87,30.83 -17.04,0 -30.83,-13.82 -30.83,-30.83 0,-17.07 13.79,-30.9 30.83,-30.9 17.04,0 30.87,13.83 30.87,30.9z"/>
  <path class="fil1 str0" d="M3188.21 1279.08c0,17.01 -13.83,30.83 -30.87,30.83 -17.04,0 -30.83,-13.82 -30.83,-30.83 0,-17.07 13.79,-30.9 30.83,-30.9 17.04,0 30.87,13.83 30.87,30.9z"/>
  <path class="fil0" d="M3340.68 2317.55c0,17.08 -13.79,30.87 -30.83,30.87 -17.04,0 -30.84,-13.79 -30.84,-30.87 0,-17.07 13.8,-30.83 30.84,-30.83 17.04,0 30.83,13.76 30.83,30.83z"/>
  <path class="fil1 str0" d="M3340.68 2317.55c0,17.08 -13.79,30.87 -30.83,30.87 -17.04,0 -30.84,-13.79 -30.84,-30.87 0,-17.07 13.8,-30.83 30.84,-30.83 17.04,0 30.83,13.76 30.83,30.83z"/>
  <path class="fil0" d="M1959.87 1576.9c0,17.04 -13.86,30.87 -30.86,30.87 -17.08,0 -30.87,-13.83 -30.87,-30.87 0,-17.04 13.79,-30.84 30.87,-30.84 17,0 30.86,13.8 30.86,30.84z"/>
  <path class="fil1 str0" d="M1959.87 1576.9c0,17.04 -13.86,30.87 -30.86,30.87 -17.08,0 -30.87,-13.83 -30.87,-30.87 0,-17.04 13.79,-30.84 30.87,-30.84 17,0 30.86,13.8 30.86,30.84z"/>
  <path class="fil0" d="M1332.18 447.69c0,17.08 -13.8,30.87 -30.87,30.87 -17.04,0 -30.84,-13.79 -30.84,-30.87 0,-17 13.8,-30.83 30.84,-30.83 17.07,0 30.87,13.83 30.87,30.83z"/>
  <path class="fil1 str0" d="M1332.18 447.69c0,17.08 -13.8,30.87 -30.87,30.87 -17.04,0 -30.84,-13.79 -30.84,-30.87 0,-17 13.8,-30.83 30.84,-30.83 17.07,0 30.87,13.83 30.87,30.83z"/>
  <path class="fil0" d="M2416.79 3529.06c0,17.04 -13.83,30.87 -30.83,30.87 -17.08,0 -30.87,-13.83 -30.87,-30.87 0,-17.04 13.79,-30.83 30.87,-30.83 17,0 30.83,13.79 30.83,30.83z"/>
  <path class="fil1 str0" d="M2416.79 3529.06c0,17.04 -13.83,30.87 -30.83,30.87 -17.08,0 -30.87,-13.83 -30.87,-30.87 0,-17.04 13.79,-30.83 30.87,-30.83 17,0 30.83,13.79 30.83,30.83z"/>
  <path class="fil0" d="M2842.03 2540.33c0,17.01 -13.83,30.84 -30.87,30.84 -17.04,0 -30.83,-13.83 -30.83,-30.84 0,-17 13.79,-30.86 30.83,-30.86 17.04,0 30.87,13.86 30.87,30.86z"/>
  <path class="fil1 str0" d="M2842.03 2540.33c0,17.01 -13.83,30.84 -30.87,30.84 -17.04,0 -30.83,-13.83 -30.83,-30.84 0,-17 13.79,-30.86 30.83,-30.86 17.04,0 30.87,13.86 30.87,30.86z"/>
  <path class="fil0" d="M3102.8 1616.69c0,17.04 -13.76,30.87 -30.83,30.87 -17.04,0 -30.83,-13.83 -30.83,-30.87 0,-17.04 13.79,-30.83 30.83,-30.83 17.07,0 30.83,13.79 30.83,30.83z"/>
  <path class="fil1 str0" d="M3102.8 1616.69c0,17.04 -13.76,30.87 -30.83,30.87 -17.04,0 -30.83,-13.83 -30.83,-30.87 0,-17.04 13.79,-30.83 30.83,-30.83 17.07,0 30.83,13.79 30.83,30.83z"/>
  <path class="fil0" d="M2477.89 1621.17c0,17 -13.83,30.83 -30.87,30.83 -17.07,0 -30.86,-13.83 -30.86,-30.83 0,-17.04 13.79,-30.87 30.86,-30.87 17.04,0 30.87,13.83 30.87,30.87z"/>
  <path class="fil1 str0" d="M2477.89 1621.17c0,17 -13.83,30.83 -30.87,30.83 -17.07,0 -30.86,-13.83 -30.86,-30.83 0,-17.04 13.79,-30.87 30.86,-30.87 17.04,0 30.87,13.83 30.87,30.87z"/>
  <path class="fil0" d="M857.09 2056.82c0,17 -13.83,30.86 -30.83,30.86 -17.04,0 -30.87,-13.86 -30.87,-30.86 0,-17.04 13.83,-30.87 30.87,-30.87 17,0 30.83,13.83 30.83,30.87z"/>
  <path class="fil1 str0" d="M857.09 2056.82c0,17 -13.83,30.86 -30.83,30.86 -17.04,0 -30.87,-13.86 -30.87,-30.86 0,-17.04 13.83,-30.87 30.87,-30.87 17,0 30.83,13.83 30.83,30.87z"/>
  <path class="fil0" d="M1868.82 3640.08c0,17.04 -13.83,30.87 -30.83,30.87 -17.08,0 -30.9,-13.83 -30.9,-30.87 0,-17.04 13.82,-30.83 30.9,-30.83 17,0 30.83,13.79 30.83,30.83z"/>
  <path class="fil1 str0" d="M1868.82 3640.08c0,17.04 -13.83,30.87 -30.83,30.87 -17.08,0 -30.9,-13.83 -30.9,-30.87 0,-17.04 13.82,-30.83 30.9,-30.83 17,0 30.83,13.79 30.83,30.83z"/>
  <path class="fil0" d="M363.34 1392.15c0,17.07 -13.79,30.87 -30.87,30.87 -17.04,0 -30.86,-13.8 -30.86,-30.87 0,-17.01 13.82,-30.84 30.86,-30.84 17.08,0 30.87,13.83 30.87,30.84z"/>
  <path class="fil1 str0" d="M363.34 1392.15c0,17.07 -13.79,30.87 -30.87,30.87 -17.04,0 -30.86,-13.8 -30.86,-30.87 0,-17.01 13.82,-30.84 30.86,-30.84 17.08,0 30.87,13.83 30.87,30.84z"/>
  <path class="fil0" d="M2081.33 2873.46c0,17.04 -13.79,30.83 -30.83,30.83 -17.04,0 -30.87,-13.79 -30.87,-30.83 0,-17 13.83,-30.83 30.87,-30.83 17.04,0 30.83,13.83 30.83,30.83z"/>
  <path class="fil1 str0" d="M2081.33 2873.46c0,17.04 -13.79,30.83 -30.83,30.83 -17.04,0 -30.87,-13.79 -30.87,-30.83 0,-17 13.83,-30.83 30.87,-30.83 17.04,0 30.83,13.83 30.83,30.83z"/>
  <path class="fil0" d="M649.59 2237.58c0,17.04 -13.83,30.83 -30.84,30.83 -17.04,0 -30.9,-13.79 -30.9,-30.83 0,-17.04 13.86,-30.83 30.9,-30.83 17.01,0 30.84,13.79 30.84,30.83z"/>
  <path class="fil1 str0" d="M649.59 2237.58c0,17.04 -13.83,30.83 -30.84,30.83 -17.04,0 -30.9,-13.79 -30.9,-30.83 0,-17.04 13.86,-30.83 30.9,-30.83 17.01,0 30.84,13.79 30.84,30.83z"/>
  <path class="fil0" d="M949.91 2754.68c0,17.08 -13.8,30.87 -30.87,30.87 -17.01,0 -30.84,-13.79 -30.84,-30.87 0,-17 13.83,-30.83 30.84,-30.83 17.07,0 30.87,13.83 30.87,30.83z"/>
  <path class="fil1 str0" d="M949.91 2754.68c0,17.08 -13.8,30.87 -30.87,30.87 -17.01,0 -30.84,-13.79 -30.84,-30.87 0,-17 13.83,-30.83 30.84,-30.83 17.07,0 30.87,13.83 30.87,30.83z"/>
  <path class="fil0" d="M831.2 901.72c0,17.03 -13.8,30.86 -30.8,30.86 -17.08,0 -30.83,-13.83 -30.83,-30.86 0,-17.01 13.75,-30.8 30.83,-30.8 17,0 30.8,13.79 30.8,30.8z"/>
  <path class="fil1 str0" d="M831.2 901.72c0,17.03 -13.8,30.86 -30.8,30.86 -17.08,0 -30.83,-13.83 -30.83,-30.86 0,-17.01 13.75,-30.8 30.83,-30.8 17,0 30.8,13.79 30.8,30.8z"/>
  <path class="fil0" d="M500.68 1115.89c0,17.04 -13.76,30.83 -30.8,30.83 -17.04,0 -30.87,-13.79 -30.87,-30.83 0,-17.04 13.83,-30.84 30.87,-30.84 17.04,0 30.8,13.8 30.8,30.84z"/>
  <path class="fil1 str0" d="M500.68 1115.89c0,17.04 -13.76,30.83 -30.8,30.83 -17.04,0 -30.87,-13.79 -30.87,-30.83 0,-17.04 13.83,-30.84 30.87,-30.84 17.04,0 30.8,13.8 30.8,30.84z"/>
  <path class="fil0" d="M3319.13 2647.4c0,17.04 -13.83,30.8 -30.87,30.8 -17.04,0 -30.83,-13.76 -30.83,-30.8 0,-17.07 13.79,-30.87 30.83,-30.87 17.04,0 30.87,13.8 30.87,30.87z"/>
  <path class="fil1 str0" d="M3319.13 2647.4c0,17.04 -13.83,30.8 -30.87,30.8 -17.04,0 -30.83,-13.76 -30.83,-30.8 0,-17.07 13.79,-30.87 30.83,-30.87 17.04,0 30.87,13.8 30.87,30.87z"/>
  <path class="fil0" d="M1161.89 1620.22c0,17.04 -13.79,30.83 -30.83,30.83 -17.04,0 -30.87,-13.79 -30.87,-30.83 0,-17.04 13.83,-30.83 30.87,-30.83 17.04,0 30.83,13.79 30.83,30.83z"/>
  <path class="fil1 str0" d="M1161.89 1620.22c0,17.04 -13.79,30.83 -30.83,30.83 -17.04,0 -30.87,-13.79 -30.87,-30.83 0,-17.04 13.83,-30.83 30.87,-30.83 17.04,0 30.83,13.79 30.83,30.83z"/>
  <path class="fil0" d="M2385.53 2244.71c0,17.07 -13.82,30.86 -30.83,30.86 -17.04,0 -30.87,-13.79 -30.87,-30.86 0,-16.97 13.83,-30.84 30.87,-30.84 17.01,0 30.83,13.87 30.83,30.84z"/>
  <path class="fil1 str0" d="M2385.53 2244.71c0,17.07 -13.82,30.86 -30.83,30.86 -17.04,0 -30.87,-13.79 -30.87,-30.86 0,-16.97 13.83,-30.84 30.87,-30.84 17.01,0 30.83,13.87 30.83,30.84z"/>
  <path class="fil0" d="M2539.17 1464.82c0,17.04 -13.79,30.83 -30.83,30.83 -17.04,0 -30.87,-13.79 -30.87,-30.83 0,-17.04 13.83,-30.83 30.87,-30.83 17.04,0 30.83,13.79 30.83,30.83z"/>
  <path class="fil1 str0" d="M2539.17 1464.82c0,17.04 -13.79,30.83 -30.83,30.83 -17.04,0 -30.87,-13.79 -30.87,-30.83 0,-17.04 13.83,-30.83 30.87,-30.83 17.04,0 30.83,13.79 30.83,30.83z"/>
  <path class="fil0" d="M2179.9 2227.24c0,17.01 -13.79,30.87 -30.8,30.87 -17.07,0 -30.83,-13.86 -30.83,-30.87 0,-17.04 13.76,-30.87 30.83,-30.87 17.01,0 30.8,13.83 30.8,30.87z"/>
  <path class="fil1 str0" d="M2179.9 2227.24c0,17.01 -13.79,30.87 -30.8,30.87 -17.07,0 -30.83,-13.86 -30.83,-30.87 0,-17.04 13.76,-30.87 30.83,-30.87 17.01,0 30.8,13.83 30.8,30.87z"/>
  <path class="fil0" d="M2914.35 2626.52c0,17.07 -13.79,30.83 -30.83,30.83 -17.04,0 -30.87,-13.76 -30.87,-30.83 0,-17.01 13.83,-30.8 30.87,-30.8 17.04,0 30.83,13.79 30.83,30.8z"/>
  <path class="fil1 str0" d="M2914.35 2626.52c0,17.07 -13.79,30.83 -30.83,30.83 -17.04,0 -30.87,-13.76 -30.87,-30.83 0,-17.01 13.83,-30.8 30.87,-30.8 17.04,0 30.83,13.79 30.83,30.8z"/>
  <path class="fil0" d="M1643.64 412.24c0,17 -13.79,30.83 -30.83,30.83 -17.04,0 -30.83,-13.83 -30.83,-30.83 0,-17.04 13.79,-30.87 30.83,-30.87 17.04,0 30.83,13.83 30.83,30.87z"/>
  <path class="fil1 str0" d="M1643.64 412.24c0,17 -13.79,30.83 -30.83,30.83 -17.04,0 -30.83,-13.83 -30.83,-30.83 0,-17.04 13.79,-30.87 30.83,-30.87 17.04,0 30.83,13.83 30.83,30.87z"/>
  <path class="fil0" d="M1941.81 2117.95c0,17.08 -13.83,30.84 -30.83,30.84 -17.08,0 -30.83,-13.76 -30.83,-30.84 0,-17.04 13.75,-30.83 30.83,-30.83 17,0 30.83,13.79 30.83,30.83z"/>
  <path class="fil1 str0" d="M1941.81 2117.95c0,17.08 -13.83,30.84 -30.83,30.84 -17.08,0 -30.83,-13.76 -30.83,-30.84 0,-17.04 13.75,-30.83 30.83,-30.83 17,0 30.83,13.79 30.83,30.83z"/>
  <path class="fil0" d="M602.74 2454.4c0,17 -13.8,30.86 -30.87,30.86 -17,0 -30.83,-13.86 -30.83,-30.86 0,-17.08 13.83,-30.87 30.83,-30.87 17.07,0 30.87,13.79 30.87,30.87z"/>
  <path class="fil1 str0" d="M602.74 2454.4c0,17 -13.8,30.86 -30.87,30.86 -17,0 -30.83,-13.86 -30.83,-30.86 0,-17.08 13.83,-30.87 30.83,-30.87 17.07,0 30.87,13.79 30.87,30.87z"/>
  <path class="fil0" d="M1066.92 1814.1c0,17.04 -13.83,30.84 -30.87,30.84 -17.07,0 -30.83,-13.8 -30.83,-30.84 0,-17.03 13.76,-30.83 30.83,-30.83 17.04,0 30.87,13.8 30.87,30.83z"/>
  <path class="fil1 str0" d="M1066.92 1814.1c0,17.04 -13.83,30.84 -30.87,30.84 -17.07,0 -30.83,-13.8 -30.83,-30.84 0,-17.03 13.76,-30.83 30.83,-30.83 17.04,0 30.87,13.8 30.87,30.83z"/>
  <path class="fil0" d="M1191.42 2564.53c0,17.04 -13.83,30.87 -30.87,30.87 -17.04,0 -30.83,-13.83 -30.83,-30.87 0,-17.04 13.79,-30.83 30.83,-30.83 17.04,0 30.87,13.79 30.87,30.83z"/>
  <path class="fil1 str0" d="M1191.42 2564.53c0,17.04 -13.83,30.87 -30.87,30.87 -17.04,0 -30.83,-13.83 -30.83,-30.87 0,-17.04 13.79,-30.83 30.83,-30.83 17.04,0 30.87,13.79 30.87,30.83z"/>
  <path class="fil0" d="M1742.99 1775.3c0,17.07 -13.8,30.87 -30.87,30.87 -17.01,0 -30.84,-13.8 -30.84,-30.87 0,-17 13.83,-30.83 30.84,-30.83 17.07,0 30.87,13.83 30.87,30.83z"/>
  <path class="fil1 str0" d="M1742.99 1775.3c0,17.07 -13.8,30.87 -30.87,30.87 -17.01,0 -30.84,-13.8 -30.84,-30.87 0,-17 13.83,-30.83 30.84,-30.83 17.07,0 30.87,13.83 30.87,30.83z"/>
  <path class="fil0" d="M2592.12 779.73c0,17 -13.79,30.83 -30.83,30.83 -17.08,0 -30.87,-13.83 -30.87,-30.83 0,-17.11 13.79,-30.91 30.87,-30.91 17.04,0 30.83,13.8 30.83,30.91z"/>
  <path class="fil1 str0" d="M2592.12 779.73c0,17 -13.79,30.83 -30.83,30.83 -17.08,0 -30.87,-13.83 -30.87,-30.83 0,-17.11 13.79,-30.91 30.87,-30.91 17.04,0 30.83,13.8 30.83,30.91z"/>
  <path class="fil0" d="M3484.54 1650.13c0,17.04 -13.83,30.87 -30.86,30.87 -17.04,0 -30.87,-13.83 -30.87,-30.87 0,-17.04 13.83,-30.83 30.87,-30.83 17.03,0 30.86,13.79 30.86,30.83z"/>
  <path class="fil1 str0" d="M3484.54 1650.13c0,17.04 -13.83,30.87 -30.86,30.87 -17.04,0 -30.87,-13.83 -30.87,-30.87 0,-17.04 13.83,-30.83 30.87,-30.83 17.03,0 30.86,13.79 30.86,30.83z"/>
  <path class="fil0" d="M2693.69 1049.07c0,17.04 -13.87,30.87 -30.87,30.87 -17.04,0 -30.87,-13.83 -30.87,-30.87 0,-17 13.83,-30.83 30.87,-30.83 17,0 30.87,13.83 30.87,30.83z"/>
  <path class="fil1 str0" d="M2693.69 1049.07c0,17.04 -13.87,30.87 -30.87,30.87 -17.04,0 -30.87,-13.83 -30.87,-30.87 0,-17 13.83,-30.83 30.87,-30.83 17,0 30.87,13.83 30.87,30.83z"/>
  <path class="fil0" d="M1439.84 929.2c0,17.04 -13.83,30.87 -30.83,30.87 -17.04,0 -30.9,-13.83 -30.9,-30.87 0,-17.04 13.86,-30.84 30.9,-30.84 17,0 30.83,13.8 30.83,30.84z"/>
  <path class="fil1 str0" d="M1439.84 929.2c0,17.04 -13.83,30.87 -30.83,30.87 -17.04,0 -30.9,-13.83 -30.9,-30.87 0,-17.04 13.86,-30.84 30.9,-30.84 17,0 30.83,13.8 30.83,30.84z"/>
  <path class="fil0" d="M1811.46 2815.01c0,17.07 -13.79,30.86 -30.83,30.86 -17.01,0 -30.87,-13.79 -30.87,-30.86 0,-17.01 13.86,-30.84 30.87,-30.84 17.04,0 30.83,13.83 30.83,30.84z"/>
  <path class="fil1 str0" d="M1811.46 2815.01c0,17.07 -13.79,30.86 -30.83,30.86 -17.01,0 -30.87,-13.79 -30.87,-30.86 0,-17.01 13.86,-30.84 30.87,-30.84 17.04,0 30.83,13.83 30.83,30.84z"/>
  <path class="fil0" d="M2752.42 1480.94c0,17.04 -13.83,30.83 -30.83,30.83 -17.04,0 -30.83,-13.79 -30.83,-30.83 0,-17.07 13.79,-30.87 30.83,-30.87 17,0 30.83,13.8 30.83,30.87z"/>
  <path class="fil1 str0" d="M2752.42 1480.94c0,17.04 -13.83,30.83 -30.83,30.83 -17.04,0 -30.83,-13.79 -30.83,-30.83 0,-17.07 13.79,-30.87 30.83,-30.87 17,0 30.83,13.8 30.83,30.87z"/>
  <path class="fil0" d="M1941.28 2499.69c0,17.01 -13.86,30.8 -30.87,30.8 -17.04,0 -30.83,-13.79 -30.83,-30.8 0,-17.11 13.79,-30.86 30.83,-30.86 17.01,0 30.87,13.75 30.87,30.86z"/>
  <path class="fil1 str0" d="M1941.28 2499.69c0,17.01 -13.86,30.8 -30.87,30.8 -17.04,0 -30.83,-13.79 -30.83,-30.8 0,-17.11 13.79,-30.86 30.83,-30.86 17.01,0 30.87,13.75 30.87,30.86z"/>
  <path class="fil0" d="M2438.63 1001.02c0,17.04 -13.83,30.84 -30.87,30.84 -17,0 -30.8,-13.8 -30.8,-30.84 0,-17.04 13.8,-30.83 30.8,-30.83 17.04,0 30.87,13.79 30.87,30.83z"/>
  <path class="fil1 str0" d="M2438.63 1001.02c0,17.04 -13.83,30.84 -30.87,30.84 -17,0 -30.8,-13.8 -30.8,-30.84 0,-17.04 13.8,-30.83 30.8,-30.83 17.04,0 30.87,13.79 30.87,30.83z"/>
  <path class="fil0" d="M1908.19 1415.36c0,17.04 -13.83,30.87 -30.87,30.87 -17.04,0 -30.83,-13.83 -30.83,-30.87 0,-17.04 13.79,-30.83 30.83,-30.83 17.04,0 30.87,13.79 30.87,30.83z"/>
  <path class="fil1 str0" d="M1908.19 1415.36c0,17.04 -13.83,30.87 -30.87,30.87 -17.04,0 -30.83,-13.83 -30.83,-30.87 0,-17.04 13.79,-30.83 30.83,-30.83 17.04,0 30.87,13.79 30.87,30.83z"/>
  <path class="fil0" d="M2777.93 2088.14c0,17.04 -13.79,30.87 -30.83,30.87 -17.08,0 -30.87,-13.83 -30.87,-30.87 0,-17.04 13.79,-30.83 30.87,-30.83 17.04,0 30.83,13.79 30.83,30.83z"/>
  <path class="fil1 str0" d="M2777.93 2088.14c0,17.04 -13.79,30.87 -30.83,30.87 -17.08,0 -30.87,-13.83 -30.87,-30.87 0,-17.04 13.79,-30.83 30.87,-30.83 17.04,0 30.83,13.79 30.83,30.83z"/>
  <path class="fil0" d="M2410.3 3307.41c0,17.08 -13.79,30.87 -30.83,30.87 -17.08,0 -30.87,-13.79 -30.87,-30.87 0,-17.04 13.79,-30.86 30.87,-30.86 17.04,0 30.83,13.82 30.83,30.86z"/>
  <path class="fil1 str0" d="M2410.3 3307.41c0,17.08 -13.79,30.87 -30.83,30.87 -17.08,0 -30.87,-13.79 -30.87,-30.87 0,-17.04 13.79,-30.86 30.87,-30.86 17.04,0 30.83,13.82 30.83,30.86z"/>
  <path class="fil0" d="M3058.53 2667.16c0,17.04 -13.83,30.83 -30.87,30.83 -17.04,0 -30.83,-13.79 -30.83,-30.83 0,-17.08 13.79,-30.84 30.83,-30.84 17.04,0 30.87,13.76 30.87,30.84z"/>
  <path class="fil1 str0" d="M3058.53 2667.16c0,17.04 -13.83,30.83 -30.87,30.83 -17.04,0 -30.83,-13.79 -30.83,-30.83 0,-17.08 13.79,-30.84 30.83,-30.84 17.04,0 30.87,13.76 30.87,30.84z"/>
  <path class="fil0" d="M2164.91 524.03c0,17.04 -13.8,30.83 -30.87,30.83 -17,0 -30.8,-13.79 -30.8,-30.83 0,-17.04 13.8,-30.87 30.8,-30.87 17.07,0 30.87,13.83 30.87,30.87z"/>
  <path class="fil1 str0" d="M2164.91 524.03c0,17.04 -13.8,30.83 -30.87,30.83 -17,0 -30.8,-13.79 -30.8,-30.83 0,-17.04 13.8,-30.87 30.8,-30.87 17.07,0 30.87,13.83 30.87,30.87z"/>
  <path class="fil0" d="M2503.96 2988.47c0,17.04 -13.79,30.83 -30.83,30.83 -17.04,0 -30.83,-13.79 -30.83,-30.83 0,-17.04 13.79,-30.87 30.83,-30.87 17.04,0 30.83,13.83 30.83,30.87z"/>
  <path class="fil1 str0" d="M2503.96 2988.47c0,17.04 -13.79,30.83 -30.83,30.83 -17.04,0 -30.83,-13.79 -30.83,-30.83 0,-17.04 13.79,-30.87 30.83,-30.87 17.04,0 30.83,13.83 30.83,30.87z"/>
  <path class="fil0" d="M1858.66 3319.09c0,17.07 -13.83,30.87 -30.83,30.87 -17.04,0 -30.83,-13.8 -30.83,-30.87 0,-17.04 13.79,-30.83 30.83,-30.83 17,0 30.83,13.79 30.83,30.83z"/>
  <path class="fil1 str0" d="M1858.66 3319.09c0,17.07 -13.83,30.87 -30.83,30.87 -17.04,0 -30.83,-13.8 -30.83,-30.87 0,-17.04 13.79,-30.83 30.83,-30.83 17,0 30.83,13.79 30.83,30.83z"/>
  <path class="fil0" d="M1898.7 830.45c0,17.08 -13.83,30.87 -30.87,30.87 -17,0 -30.83,-13.79 -30.83,-30.87 0,-17.03 13.83,-30.83 30.83,-30.83 17.04,0 30.87,13.8 30.87,30.83z"/>
  <path class="fil1 str0" d="M1898.7 830.45c0,17.08 -13.83,30.87 -30.87,30.87 -17,0 -30.83,-13.79 -30.83,-30.87 0,-17.03 13.83,-30.83 30.83,-30.83 17.04,0 30.87,13.8 30.87,30.83z"/>
  <path class="fil0" d="M425.25 2373.29c0,17.01 -13.86,30.84 -30.9,30.84 -17.07,0 -30.83,-13.83 -30.83,-30.84 0,-17.07 13.76,-30.87 30.83,-30.87 17.04,0 30.9,13.8 30.9,30.87z"/>
  <path class="fil1 str0" d="M425.25 2373.29c0,17.01 -13.86,30.84 -30.9,30.84 -17.07,0 -30.83,-13.83 -30.83,-30.84 0,-17.07 13.76,-30.87 30.83,-30.87 17.04,0 30.9,13.8 30.9,30.87z"/>
  <path class="fil0" d="M2825.27 2777.29c0,17.04 -13.86,30.87 -30.87,30.87 -17.03,0 -30.83,-13.83 -30.83,-30.87 0,-17.04 13.8,-30.83 30.83,-30.83 17.01,0 30.87,13.79 30.87,30.83z"/>
  <path class="fil1 str0" d="M2825.27 2777.29c0,17.04 -13.86,30.87 -30.87,30.87 -17.03,0 -30.83,-13.83 -30.83,-30.87 0,-17.04 13.8,-30.83 30.83,-30.83 17.01,0 30.87,13.79 30.87,30.83z"/>
  <path class="fil0" d="M359.78 1904.73c0,17.08 -13.76,30.87 -30.87,30.87 -17,0 -30.8,-13.79 -30.8,-30.87 0,-17 13.8,-30.83 30.8,-30.83 17.11,0 30.87,13.83 30.87,30.83z"/>
  <path class="fil1 str0" d="M359.78 1904.73c0,17.08 -13.76,30.87 -30.87,30.87 -17,0 -30.8,-13.79 -30.8,-30.87 0,-17 13.8,-30.83 30.8,-30.83 17.11,0 30.87,13.83 30.87,30.83z"/>
  <path class="fil0" d="M1384.35 2684.69c0,17.04 -13.79,30.83 -30.83,30.83 -17.01,0 -30.83,-13.79 -30.83,-30.83 0,-17.07 13.82,-30.87 30.83,-30.87 17.04,0 30.83,13.8 30.83,30.87z"/>
  <path class="fil1 str0" d="M1384.35 2684.69c0,17.04 -13.79,30.83 -30.83,30.83 -17.01,0 -30.83,-13.79 -30.83,-30.83 0,-17.07 13.82,-30.87 30.83,-30.87 17.04,0 30.83,13.8 30.83,30.87z"/>
  <path class="fil0" d="M1602.69 3546.91c0,17.04 -13.87,30.87 -30.87,30.87 -17.04,0 -30.84,-13.83 -30.84,-30.87 0,-17 13.8,-30.83 30.84,-30.83 17,0 30.87,13.83 30.87,30.83z"/>
  <path class="fil1 str0" d="M1602.69 3546.91c0,17.04 -13.87,30.87 -30.87,30.87 -17.04,0 -30.84,-13.83 -30.84,-30.87 0,-17 13.8,-30.83 30.84,-30.83 17,0 30.87,13.83 30.87,30.83z"/>
  <path class="fil0" d="M2757.47 1834.99c0,17.07 -13.83,30.9 -30.87,30.9 -17.04,0 -30.83,-13.83 -30.83,-30.9 0,-17 13.79,-30.8 30.83,-30.8 17.04,0 30.87,13.8 30.87,30.8z"/>
  <path class="fil1 str0" d="M2757.47 1834.99c0,17.07 -13.83,30.9 -30.87,30.9 -17.04,0 -30.83,-13.83 -30.83,-30.9 0,-17 13.79,-30.8 30.83,-30.8 17.04,0 30.87,13.8 30.87,30.8z"/>
  <path class="fil0" d="M2223.75 958.9c0,17.08 -13.79,30.87 -30.83,30.87 -17.04,0 -30.83,-13.79 -30.83,-30.87 0,-17 13.79,-30.83 30.83,-30.83 17.04,0 30.83,13.83 30.83,30.83z"/>
  <path class="fil1 str0" d="M2223.75 958.9c0,17.08 -13.79,30.87 -30.83,30.87 -17.04,0 -30.83,-13.79 -30.83,-30.87 0,-17 13.79,-30.83 30.83,-30.83 17.04,0 30.83,13.83 30.83,30.83z"/>
  <path class="fil0" d="M2342.43 1769.83c0,17.01 -13.83,30.83 -30.87,30.83 -17.04,0 -30.87,-13.82 -30.87,-30.83 0,-17.04 13.83,-30.87 30.87,-30.87 17.04,0 30.87,13.83 30.87,30.87z"/>
  <path class="fil1 str0" d="M2342.43 1769.83c0,17.01 -13.83,30.83 -30.87,30.83 -17.04,0 -30.87,-13.82 -30.87,-30.83 0,-17.04 13.83,-30.87 30.87,-30.87 17.04,0 30.87,13.83 30.87,30.87z"/>
  <path class="fil0" d="M1121.6 2884.96c0,17.01 -13.79,30.87 -30.87,30.87 -17,0 -30.83,-13.86 -30.83,-30.87 0,-17.07 13.83,-30.83 30.83,-30.83 17.08,0 30.87,13.76 30.87,30.83z"/>
  <path class="fil1 str0" d="M1121.6 2884.96c0,17.01 -13.79,30.87 -30.87,30.87 -17,0 -30.83,-13.86 -30.83,-30.87 0,-17.07 13.83,-30.83 30.83,-30.83 17.08,0 30.87,13.76 30.87,30.83z"/>
  <path class="fil0" d="M1525.99 662.74c0,17.04 -13.86,30.8 -30.9,30.8 -17.01,0 -30.83,-13.76 -30.83,-30.8 0,-17.04 13.82,-30.86 30.83,-30.86 17.04,0 30.9,13.82 30.9,30.86z"/>
  <path class="fil1 str0" d="M1525.99 662.74c0,17.04 -13.86,30.8 -30.9,30.8 -17.01,0 -30.83,-13.76 -30.83,-30.8 0,-17.04 13.82,-30.86 30.83,-30.86 17.04,0 30.9,13.82 30.9,30.86z"/>
  <path class="fil0" d="M1882.3 2234.72c0,17.04 -13.87,30.87 -30.87,30.87 -17.04,0 -30.83,-13.83 -30.83,-30.87 0,-17.04 13.79,-30.87 30.83,-30.87 17,0 30.87,13.83 30.87,30.87z"/>
  <path class="fil1 str0" d="M1882.3 2234.72c0,17.04 -13.87,30.87 -30.87,30.87 -17.04,0 -30.83,-13.83 -30.83,-30.87 0,-17.04 13.79,-30.87 30.83,-30.87 17,0 30.87,13.83 30.87,30.87z"/>
  <path class="fil0" d="M2865.67 3145.38c0,17.08 -13.87,30.91 -30.87,30.91 -17.04,0 -30.87,-13.83 -30.87,-30.91 0,-17 13.83,-30.8 30.87,-30.8 17,0 30.87,13.8 30.87,30.8z"/>
  <path class="fil1 str0" d="M2865.67 3145.38c0,17.08 -13.87,30.91 -30.87,30.91 -17.04,0 -30.87,-13.83 -30.87,-30.91 0,-17 13.83,-30.8 30.87,-30.8 17,0 30.87,13.8 30.87,30.8z"/>
  <path class="fil0" d="M1753.32 596.35c0,17.04 -13.83,30.87 -30.87,30.87 -17.04,0 -30.86,-13.83 -30.86,-30.87 0,-17 13.82,-30.83 30.86,-30.83 17.04,0 30.87,13.83 30.87,30.83z"/>
  <path class="fil1 str0" d="M1753.32 596.35c0,17.04 -13.83,30.87 -30.87,30.87 -17.04,0 -30.86,-13.83 -30.86,-30.87 0,-17 13.82,-30.83 30.86,-30.83 17.04,0 30.87,13.83 30.87,30.83z"/>
  <path class="fil0" d="M901.54 1583.32c0,17 -13.83,30.83 -30.87,30.83 -17,0 -30.9,-13.83 -30.9,-30.83 0,-17.08 13.9,-30.87 30.9,-30.87 17.04,0 30.87,13.79 30.87,30.87z"/>
  <path class="fil1 str0" d="M901.54 1583.32c0,17 -13.83,30.83 -30.87,30.83 -17,0 -30.9,-13.83 -30.9,-30.83 0,-17.08 13.9,-30.87 30.9,-30.87 17.04,0 30.87,13.79 30.87,30.87z"/>
  <path class="fil0" d="M619.64 2963.88c0,17.04 -13.76,30.87 -30.8,30.87 -17.08,0 -30.87,-13.83 -30.87,-30.87 0,-17.04 13.79,-30.83 30.87,-30.83 17.04,0 30.8,13.79 30.8,30.83z"/>
  <path class="fil1 str0" d="M619.64 2963.88c0,17.04 -13.76,30.87 -30.8,30.87 -17.08,0 -30.87,-13.83 -30.87,-30.87 0,-17.04 13.79,-30.83 30.87,-30.83 17.04,0 30.8,13.79 30.8,30.83z"/>
  <path class="fil0" d="M3025.54 1810.97c0,17.07 -13.79,30.86 -30.83,30.86 -17.04,0 -30.83,-13.79 -30.83,-30.86 0,-17.04 13.79,-30.84 30.83,-30.84 17.04,0 30.83,13.8 30.83,30.84z"/>
  <path class="fil1 str0" d="M3025.54 1810.97c0,17.07 -13.79,30.86 -30.83,30.86 -17.04,0 -30.83,-13.79 -30.83,-30.86 0,-17.04 13.79,-30.84 30.83,-30.84 17.04,0 30.83,13.8 30.83,30.84z"/>
  <path class="fil0" d="M486.88 2185.9c0,17.07 -13.86,30.87 -30.83,30.87 -17.07,0 -30.87,-13.8 -30.87,-30.87 0,-17.04 13.8,-30.84 30.87,-30.84 16.97,0 30.83,13.8 30.83,30.84z"/>
  <path class="fil1 str0" d="M486.88 2185.9c0,17.07 -13.86,30.87 -30.83,30.87 -17.07,0 -30.87,-13.8 -30.87,-30.87 0,-17.04 13.8,-30.84 30.87,-30.84 16.97,0 30.83,13.8 30.83,30.84z"/>
  <path class="fil0" d="M929.87 3113.17c0,17.04 -13.83,30.84 -30.83,30.84 -17.04,0 -30.87,-13.8 -30.87,-30.84 0,-17.04 13.83,-30.86 30.87,-30.86 17,0 30.83,13.82 30.83,30.86z"/>
  <path class="fil1 str0" d="M929.87 3113.17c0,17.04 -13.83,30.84 -30.83,30.84 -17.04,0 -30.87,-13.8 -30.87,-30.84 0,-17.04 13.83,-30.86 30.87,-30.86 17,0 30.83,13.82 30.83,30.86z"/>
  <path class="fil0" d="M1927.74 378.51c0,17.08 -13.83,30.83 -30.87,30.83 -17.04,0 -30.84,-13.75 -30.84,-30.83 0,-17.07 13.8,-30.83 30.84,-30.83 17.04,0 30.87,13.76 30.87,30.83z"/>
  <path class="fil1 str0" d="M1927.74 378.51c0,17.08 -13.83,30.83 -30.87,30.83 -17.04,0 -30.84,-13.75 -30.84,-30.83 0,-17.07 13.8,-30.83 30.84,-30.83 17.04,0 30.87,13.76 30.87,30.83z"/>
  <path class="fil0" d="M1713.32 2619.74c0,17.04 -13.8,30.87 -30.87,30.87 -17.01,0 -30.8,-13.83 -30.8,-30.87 0,-17 13.79,-30.83 30.8,-30.83 17.07,0 30.87,13.83 30.87,30.83z"/>
  <path class="fil1 str0" d="M1713.32 2619.74c0,17.04 -13.8,30.87 -30.87,30.87 -17.01,0 -30.8,-13.83 -30.8,-30.87 0,-17 13.79,-30.83 30.8,-30.83 17.07,0 30.87,13.83 30.87,30.83z"/>
  <path class="fil0" d="M2945.39 1346.29c0,17 -13.79,30.86 -30.83,30.86 -17.04,0 -30.87,-13.86 -30.87,-30.86 0,-17.04 13.83,-30.84 30.87,-30.84 17.04,0 30.83,13.8 30.83,30.84z"/>
  <path class="fil1 str0" d="M2945.39 1346.29c0,17 -13.79,30.86 -30.83,30.86 -17.04,0 -30.87,-13.86 -30.87,-30.86 0,-17.04 13.83,-30.84 30.87,-30.84 17.04,0 30.83,13.8 30.83,30.84z"/>
  <path class="fil0" d="M3332.95 1671.9c0,17 -13.79,30.83 -30.83,30.83 -17.07,0 -30.87,-13.83 -30.87,-30.83 0,-17.07 13.8,-30.87 30.87,-30.87 17.04,0 30.83,13.8 30.83,30.87z"/>
  <path class="fil1 str0" d="M3332.95 1671.9c0,17 -13.79,30.83 -30.83,30.83 -17.07,0 -30.87,-13.83 -30.87,-30.83 0,-17.07 13.8,-30.87 30.87,-30.87 17.04,0 30.83,13.8 30.83,30.87z"/>
  <path class="fil0" d="M2170.69 3267.73c0,17.07 -13.83,30.86 -30.86,30.86 -17.04,0 -30.87,-13.79 -30.87,-30.86 0,-17.04 13.83,-30.87 30.87,-30.87 17.03,0 30.86,13.83 30.86,30.87z"/>
  <path class="fil1 str0" d="M2170.69 3267.73c0,17.07 -13.83,30.86 -30.86,30.86 -17.04,0 -30.87,-13.79 -30.87,-30.86 0,-17.04 13.83,-30.87 30.87,-30.87 17.03,0 30.86,13.83 30.86,30.87z"/>
  <path class="fil0" d="M1112.64 914.98c0,17 -13.83,30.87 -30.87,30.87 -17.04,0 -30.83,-13.87 -30.83,-30.87 0,-17.04 13.79,-30.9 30.83,-30.9 17.04,0 30.87,13.86 30.87,30.9z"/>
  <path class="fil1 str0" d="M1112.64 914.98c0,17 -13.83,30.87 -30.87,30.87 -17.04,0 -30.83,-13.87 -30.83,-30.87 0,-17.04 13.79,-30.9 30.83,-30.9 17.04,0 30.87,13.86 30.87,30.9z"/>
  <path class="fil0" d="M1722.59 3045.72c0,17.04 -13.75,30.87 -30.83,30.87 -17.04,0 -30.83,-13.83 -30.83,-30.87 0,-17 13.79,-30.87 30.83,-30.87 17.08,0 30.83,13.87 30.83,30.87z"/>
  <path class="fil1 str0" d="M1722.59 3045.72c0,17.04 -13.75,30.87 -30.83,30.87 -17.04,0 -30.83,-13.83 -30.83,-30.87 0,-17 13.79,-30.87 30.83,-30.87 17.08,0 30.83,13.87 30.83,30.87z"/>
  <path class="fil0" d="M1554.6 1616.41c0,17.07 -13.83,30.83 -30.87,30.83 -17.04,0 -30.83,-13.76 -30.83,-30.83 0,-17.04 13.79,-30.83 30.83,-30.83 17.04,0 30.87,13.79 30.87,30.83z"/>
  <path class="fil1 str0" d="M1554.6 1616.41c0,17.07 -13.83,30.83 -30.87,30.83 -17.04,0 -30.83,-13.76 -30.83,-30.83 0,-17.04 13.79,-30.83 30.83,-30.83 17.04,0 30.87,13.79 30.87,30.83z"/>
  <path class="fil0" d="M1608.01 3223.52c0,17.08 -13.83,30.91 -30.87,30.91 -17.03,0 -30.83,-13.83 -30.83,-30.91 0,-17 13.8,-30.83 30.83,-30.83 17.04,0 30.87,13.83 30.87,30.83z"/>
  <path class="fil1 str0" d="M1608.01 3223.52c0,17.08 -13.83,30.91 -30.87,30.91 -17.03,0 -30.83,-13.83 -30.83,-30.91 0,-17 13.8,-30.83 30.83,-30.83 17.04,0 30.87,13.83 30.87,30.83z"/>
  <path class="fil0" d="M960.56 1149.51c0,17 -13.79,30.79 -30.87,30.79 -17,0 -30.8,-13.79 -30.8,-30.79 0,-17.08 13.8,-30.87 30.8,-30.87 17.08,0 30.87,13.79 30.87,30.87z"/>
  <path class="fil1 str0" d="M960.56 1149.51c0,17 -13.79,30.79 -30.87,30.79 -17,0 -30.8,-13.79 -30.8,-30.79 0,-17.08 13.8,-30.87 30.8,-30.87 17.08,0 30.87,13.79 30.87,30.87z"/>
  <path class="fil0" d="M2886.23 2378.44c0,17.08 -13.83,30.87 -30.87,30.87 -17.03,0 -30.86,-13.79 -30.86,-30.87 0,-17 13.83,-30.83 30.86,-30.83 17.04,0 30.87,13.83 30.87,30.83z"/>
  <path class="fil1 str0" d="M2886.23 2378.44c0,17.08 -13.83,30.87 -30.87,30.87 -17.03,0 -30.86,-13.79 -30.86,-30.87 0,-17 13.83,-30.83 30.86,-30.83 17.04,0 30.87,13.83 30.87,30.83z"/>
  <path class="fil0" d="M1318.7 818.39c0,17.04 -13.83,30.9 -30.87,30.9 -17,0 -30.87,-13.86 -30.87,-30.9 0,-17 13.87,-30.8 30.87,-30.8 17.04,0 30.87,13.8 30.87,30.8z"/>
  <path class="fil1 str0" d="M1318.7 818.39c0,17.04 -13.83,30.9 -30.87,30.9 -17,0 -30.87,-13.86 -30.87,-30.9 0,-17 13.87,-30.8 30.87,-30.8 17.04,0 30.87,13.8 30.87,30.8z"/>
  <path class="fil0" d="M480.22 1741.47c0,17 -13.76,30.83 -30.87,30.83 -17,0 -30.83,-13.83 -30.83,-30.83 0,-17.08 13.83,-30.87 30.83,-30.87 17.11,0 30.87,13.79 30.87,30.87z"/>
  <path class="fil1 str0" d="M480.22 1741.47c0,17 -13.76,30.83 -30.87,30.83 -17,0 -30.83,-13.83 -30.83,-30.83 0,-17.08 13.83,-30.87 30.83,-30.87 17.11,0 30.87,13.79 30.87,30.87z"/>
  <path class="fil0" d="M2297.41 2167.94c0,17 -13.83,30.8 -30.83,30.8 -17.08,0 -30.87,-13.8 -30.87,-30.8 0,-17.07 13.79,-30.87 30.87,-30.87 17,0 30.83,13.8 30.83,30.87z"/>
  <path class="fil1 str0" d="M2297.41 2167.94c0,17 -13.83,30.8 -30.83,30.8 -17.08,0 -30.87,-13.8 -30.87,-30.8 0,-17.07 13.79,-30.87 30.87,-30.87 17,0 30.83,13.8 30.83,30.87z"/>
  <path class="fil0" d="M1932.36 3061.74c0,17.07 -13.83,30.87 -30.84,30.87 -17.04,0 -30.86,-13.8 -30.86,-30.87 0,-17.04 13.82,-30.83 30.86,-30.83 17.01,0 30.84,13.79 30.84,30.83z"/>
  <path class="fil1 str0" d="M1932.36 3061.74c0,17.07 -13.83,30.87 -30.84,30.87 -17.04,0 -30.86,-13.8 -30.86,-30.87 0,-17.04 13.82,-30.83 30.86,-30.83 17.01,0 30.84,13.79 30.84,30.83z"/>
  <path class="fil0" d="M3058.18 2989.49c0,17.04 -13.83,30.83 -30.84,30.83 -17.04,0 -30.86,-13.79 -30.86,-30.83 0,-17.04 13.82,-30.87 30.86,-30.87 17.01,0 30.84,13.83 30.84,30.87z"/>
  <path class="fil1 str0" d="M3058.18 2989.49c0,17.04 -13.83,30.83 -30.84,30.83 -17.04,0 -30.86,-13.79 -30.86,-30.83 0,-17.04 13.82,-30.87 30.86,-30.87 17.01,0 30.84,13.83 30.84,30.87z"/>
  <path class="fil0" d="M2882.78 1130.63c0,17.04 -13.83,30.84 -30.87,30.84 -17.04,0 -30.87,-13.8 -30.87,-30.84 0,-17.07 13.83,-30.86 30.87,-30.86 17.04,0 30.87,13.79 30.87,30.86z"/>
  <path class="fil1 str0" d="M2882.78 1130.63c0,17.04 -13.83,30.84 -30.87,30.84 -17.04,0 -30.87,-13.8 -30.87,-30.84 0,-17.07 13.83,-30.86 30.87,-30.86 17.04,0 30.87,13.79 30.87,30.86z"/>
  <path class="fil0" d="M2589.76 1261.13c0,17.03 -13.83,30.83 -30.83,30.83 -17.08,0 -30.84,-13.8 -30.84,-30.83 0,-17.04 13.76,-30.84 30.84,-30.84 17,0 30.83,13.8 30.83,30.84z"/>
  <path class="fil1 str0" d="M2589.76 1261.13c0,17.03 -13.83,30.83 -30.83,30.83 -17.08,0 -30.84,-13.8 -30.84,-30.83 0,-17.04 13.76,-30.84 30.84,-30.84 17,0 30.83,13.8 30.83,30.84z"/>
  <path class="fil0" d="M2144.27 2331.49c0,17 -13.79,30.83 -30.87,30.83 -17,0 -30.83,-13.83 -30.83,-30.83 0,-17.04 13.83,-30.87 30.83,-30.87 17.08,0 30.87,13.83 30.87,30.87z"/>
  <path class="fil1 str0" d="M2144.27 2331.49c0,17 -13.79,30.83 -30.87,30.83 -17,0 -30.83,-13.83 -30.83,-30.83 0,-17.04 13.83,-30.87 30.83,-30.87 17.08,0 30.87,13.83 30.87,30.87z"/>
  <path class="fil0" d="M2557.58 2312.09c0,17.11 -13.79,30.86 -30.83,30.86 -17.07,0 -30.87,-13.75 -30.87,-30.86 0,-17.01 13.8,-30.8 30.87,-30.8 17.04,0 30.83,13.79 30.83,30.8z"/>
  <path class="fil1 str0" d="M2557.58 2312.09c0,17.11 -13.79,30.86 -30.83,30.86 -17.07,0 -30.87,-13.75 -30.87,-30.86 0,-17.01 13.8,-30.8 30.87,-30.8 17.04,0 30.83,13.79 30.83,30.8z"/>
  <path class="fil0" d="M698.76 1427c0,17.04 -13.83,30.83 -30.83,30.83 -17.04,0 -30.87,-13.79 -30.87,-30.83 0,-17 13.83,-30.87 30.87,-30.87 17,0 30.83,13.87 30.83,30.87z"/>
  <path class="fil1 str0" d="M698.76 1427c0,17.04 -13.83,30.83 -30.83,30.83 -17.04,0 -30.87,-13.79 -30.87,-30.83 0,-17 13.83,-30.87 30.87,-30.87 17,0 30.83,13.87 30.83,30.87z"/>
  <path class="fil0" d="M2061.16 774.08c0,17 -13.8,30.8 -30.87,30.8 -17.04,0 -30.84,-13.8 -30.84,-30.8 0,-17.04 13.8,-30.87 30.84,-30.87 17.07,0 30.87,13.83 30.87,30.87z"/>
  <path class="fil1 str0" d="M2061.16 774.08c0,17 -13.8,30.8 -30.87,30.8 -17.04,0 -30.84,-13.8 -30.84,-30.8 0,-17.04 13.8,-30.87 30.84,-30.87 17.07,0 30.87,13.83 30.87,30.87z"/>
  <path class="fil0" d="M761.59 2603.59c0,17.04 -13.83,30.86 -30.83,30.86 -17.11,0 -30.9,-13.82 -30.9,-30.86 0,-17.04 13.79,-30.84 30.9,-30.84 17,0 30.83,13.8 30.83,30.84z"/>
  <path class="fil1 str0" d="M761.59 2603.59c0,17.04 -13.83,30.86 -30.83,30.86 -17.11,0 -30.9,-13.82 -30.9,-30.86 0,-17.04 13.79,-30.84 30.9,-30.84 17,0 30.83,13.8 30.83,30.84z"/>
  <path class="fil0" d="M2302.14 2012.01c0,17.04 -13.8,30.84 -30.87,30.84 -17.04,0 -30.83,-13.8 -30.83,-30.84 0,-17.04 13.79,-30.86 30.83,-30.86 17.07,0 30.87,13.82 30.87,30.86z"/>
  <path class="fil1 str0" d="M2302.14 2012.01c0,17.04 -13.8,30.84 -30.87,30.84 -17.04,0 -30.83,-13.8 -30.83,-30.84 0,-17.04 13.79,-30.86 30.83,-30.86 17.07,0 30.87,13.82 30.87,30.86z"/>
  <path class="fil0" d="M3471.84 2479.09c0,17.04 -13.83,30.83 -30.83,30.83 -17.07,0 -30.87,-13.79 -30.87,-30.83 0,-17.07 13.8,-30.87 30.87,-30.87 17,0 30.83,13.8 30.83,30.87z"/>
  <path class="fil1 str0" d="M3471.84 2479.09c0,17.04 -13.83,30.83 -30.83,30.83 -17.07,0 -30.87,-13.79 -30.87,-30.83 0,-17.07 13.8,-30.87 30.87,-30.87 17,0 30.83,13.8 30.83,30.87z"/>
  <path class="fil0" d="M2380.14 2544.85c0,17 -13.83,30.8 -30.87,30.8 -17.08,0 -30.87,-13.8 -30.87,-30.8 0,-17.08 13.79,-30.87 30.87,-30.87 17.04,0 30.87,13.79 30.87,30.87z"/>
  <path class="fil1 str0" d="M2380.14 2544.85c0,17 -13.83,30.8 -30.87,30.8 -17.08,0 -30.87,-13.8 -30.87,-30.8 0,-17.08 13.79,-30.87 30.87,-30.87 17.04,0 30.87,13.79 30.87,30.87z"/>
  <path class="fil0" d="M687.62 1224.93c0,17.04 -13.83,30.83 -30.84,30.83 -17.11,0 -30.87,-13.79 -30.87,-30.83 0,-17 13.76,-30.87 30.87,-30.87 17.01,0 30.84,13.87 30.84,30.87z"/>
  <path class="fil1 str0" d="M687.62 1224.93c0,17.04 -13.83,30.83 -30.84,30.83 -17.11,0 -30.87,-13.79 -30.87,-30.83 0,-17 13.76,-30.87 30.87,-30.87 17.01,0 30.84,13.87 30.84,30.87z"/>
  <path class="fil0" d="M573.39 1964.11c0,17 -13.83,30.83 -30.84,30.83 -17.11,0 -30.9,-13.83 -30.9,-30.83 0,-17.04 13.79,-30.87 30.9,-30.87 17.01,0 30.84,13.83 30.84,30.87z"/>
  <path class="fil1 str0" d="M573.39 1964.11c0,17 -13.83,30.83 -30.84,30.83 -17.11,0 -30.9,-13.83 -30.9,-30.83 0,-17.04 13.79,-30.87 30.9,-30.87 17.01,0 30.84,13.83 30.84,30.87z"/>
  <path class="fil0" d="M1936.38 1160.34c0,17 -13.8,30.83 -30.83,30.83 -17.04,0 -30.87,-13.83 -30.87,-30.83 0,-17.04 13.83,-30.87 30.87,-30.87 17.03,0 30.83,13.83 30.83,30.87z"/>
  <path class="fil1 str0" d="M1936.38 1160.34c0,17 -13.8,30.83 -30.83,30.83 -17.04,0 -30.87,-13.83 -30.87,-30.83 0,-17.04 13.83,-30.87 30.87,-30.87 17.03,0 30.83,13.83 30.83,30.87z"/>
  <path class="fil0" d="M2362.29 2858.75c0,17.07 -13.83,30.87 -30.87,30.87 -17.01,0 -30.83,-13.8 -30.83,-30.87 0,-17.04 13.82,-30.83 30.83,-30.83 17.04,0 30.87,13.79 30.87,30.83z"/>
  <path class="fil1 str0" d="M2362.29 2858.75c0,17.07 -13.83,30.87 -30.87,30.87 -17.01,0 -30.83,-13.8 -30.83,-30.87 0,-17.04 13.82,-30.83 30.83,-30.83 17.04,0 30.87,13.79 30.87,30.83z"/>
  <path class="fil0" d="M264.63 2485.83c0,17.07 -13.82,30.87 -30.86,30.87 -17.04,0 -30.84,-13.8 -30.84,-30.87 0,-17 13.8,-30.83 30.84,-30.83 17.04,0 30.86,13.83 30.86,30.83z"/>
  <path class="fil1 str0" d="M264.63 2485.83c0,17.07 -13.82,30.87 -30.86,30.87 -17.04,0 -30.84,-13.8 -30.84,-30.87 0,-17 13.8,-30.83 30.84,-30.83 17.04,0 30.86,13.83 30.86,30.83z"/>
  <path class="fil0" d="M2191.01 3042.44c0,17.08 -13.83,30.83 -30.86,30.83 -17.01,0 -30.84,-13.75 -30.84,-30.83 0,-17.07 13.83,-30.87 30.84,-30.87 17.03,0 30.86,13.8 30.86,30.87z"/>
  <path class="fil1 str0" d="M2191.01 3042.44c0,17.08 -13.83,30.83 -30.86,30.83 -17.01,0 -30.84,-13.75 -30.84,-30.83 0,-17.07 13.83,-30.87 30.84,-30.87 17.03,0 30.86,13.8 30.86,30.87z"/>
  <path class="fil0" d="M1411.69 2448.79c0,17 -13.83,30.83 -30.87,30.83 -17.04,0 -30.86,-13.83 -30.86,-30.83 0,-17.04 13.82,-30.87 30.86,-30.87 17.04,0 30.87,13.83 30.87,30.87z"/>
  <path class="fil1 str0" d="M1411.69 2448.79c0,17 -13.83,30.83 -30.87,30.83 -17.04,0 -30.86,-13.83 -30.86,-30.83 0,-17.04 13.82,-30.87 30.86,-30.87 17.04,0 30.87,13.83 30.87,30.87z"/>
  <path class="fil0" d="M1724.71 825.45c0,17.03 -13.79,30.83 -30.87,30.83 -17.04,0 -30.83,-13.8 -30.83,-30.83 0,-17.08 13.79,-30.84 30.83,-30.84 17.08,0 30.87,13.76 30.87,30.84z"/>
  <path class="fil1 str0" d="M1724.71 825.45c0,17.03 -13.79,30.83 -30.87,30.83 -17.04,0 -30.83,-13.8 -30.83,-30.83 0,-17.08 13.79,-30.84 30.83,-30.84 17.08,0 30.87,13.76 30.87,30.84z"/>
  <path class="fil0" d="M1737.2 1090.8c0,17.04 -13.83,30.84 -30.87,30.84 -17.04,0 -30.83,-13.8 -30.83,-30.84 0,-17.03 13.79,-30.86 30.83,-30.86 17.04,0 30.87,13.83 30.87,30.86z"/>
  <path class="fil1 str0" d="M1737.2 1090.8c0,17.04 -13.83,30.84 -30.87,30.84 -17.04,0 -30.83,-13.8 -30.83,-30.84 0,-17.03 13.79,-30.86 30.83,-30.86 17.04,0 30.87,13.83 30.87,30.86z"/>
  <path class="fil0" d="M2920.42 927.43c0,17.04 -13.8,30.84 -30.8,30.84 -17.08,0 -30.87,-13.8 -30.87,-30.84 0,-17.07 13.79,-30.83 30.87,-30.83 17,0 30.8,13.76 30.8,30.83z"/>
  <path class="fil1 str0" d="M2920.42 927.43c0,17.04 -13.8,30.84 -30.8,30.84 -17.08,0 -30.87,-13.8 -30.87,-30.84 0,-17.07 13.79,-30.83 30.87,-30.83 17,0 30.8,13.76 30.8,30.83z"/>
  <path class="fil0" d="M1158.54 1427.92c0,17.04 -13.83,30.83 -30.87,30.83 -17.04,0 -30.83,-13.79 -30.83,-30.83 0,-17.04 13.79,-30.87 30.83,-30.87 17.04,0 30.87,13.83 30.87,30.87z"/>
  <path class="fil1 str0" d="M1158.54 1427.92c0,17.04 -13.83,30.83 -30.87,30.83 -17.04,0 -30.83,-13.79 -30.83,-30.83 0,-17.04 13.79,-30.87 30.83,-30.87 17.04,0 30.87,13.83 30.87,30.87z"/>
  <path class="fil0" d="M2889.41 1642.3c0,17.04 -13.8,30.83 -30.8,30.83 -17.07,0 -30.87,-13.79 -30.87,-30.83 0,-17.07 13.8,-30.87 30.87,-30.87 17,0 30.8,13.8 30.8,30.87z"/>
  <path class="fil1 str0" d="M2889.41 1642.3c0,17.04 -13.8,30.83 -30.8,30.83 -17.07,0 -30.87,-13.79 -30.87,-30.83 0,-17.07 13.8,-30.87 30.87,-30.87 17,0 30.8,13.8 30.8,30.87z"/>
  <path class="fil0" d="M978.3 2572.12c0,17.07 -13.79,30.87 -30.83,30.87 -17.04,0 -30.83,-13.8 -30.83,-30.87 0,-17.01 13.79,-30.87 30.83,-30.87 17.04,0 30.83,13.86 30.83,30.87z"/>
  <path class="fil1 str0" d="M978.3 2572.12c0,17.07 -13.79,30.87 -30.83,30.87 -17.04,0 -30.83,-13.8 -30.83,-30.87 0,-17.01 13.79,-30.87 30.83,-30.87 17.04,0 30.83,13.86 30.83,30.87z"/>
  <path class="fil0" d="M1423.12 3092.36c0,17.07 -13.83,30.87 -30.87,30.87 -17.04,0 -30.86,-13.8 -30.86,-30.87 0,-17.04 13.82,-30.83 30.86,-30.83 17.04,0 30.87,13.79 30.87,30.83z"/>
  <path class="fil1 str0" d="M1423.12 3092.36c0,17.07 -13.83,30.87 -30.87,30.87 -17.04,0 -30.86,-13.8 -30.86,-30.87 0,-17.04 13.82,-30.83 30.86,-30.83 17.04,0 30.87,13.79 30.87,30.83z"/>
  <path class="fil0" d="M742.97 1866.32c0,17.04 -13.76,30.86 -30.84,30.86 -17.04,0 -30.79,-13.82 -30.79,-30.86 0,-17.04 13.75,-30.84 30.79,-30.84 17.08,0 30.84,13.8 30.84,30.84z"/>
  <path class="fil1 str0" d="M742.97 1866.32c0,17.04 -13.76,30.86 -30.84,30.86 -17.04,0 -30.79,-13.82 -30.79,-30.86 0,-17.04 13.75,-30.84 30.79,-30.84 17.08,0 30.84,13.8 30.84,30.84z"/>
  <path class="fil0" d="M836.42 3028.82c0,17.01 -13.83,30.87 -30.87,30.87 -17,0 -30.87,-13.86 -30.87,-30.87 0,-17.07 13.87,-30.86 30.87,-30.86 17.04,0 30.87,13.79 30.87,30.86z"/>
  <path class="fil1 str0" d="M836.42 3028.82c0,17.01 -13.83,30.87 -30.87,30.87 -17,0 -30.87,-13.86 -30.87,-30.87 0,-17.07 13.87,-30.86 30.87,-30.86 17.04,0 30.87,13.79 30.87,30.86z"/>
  <path class="fil0" d="M1809.31 1936.7c0,17.03 -13.8,30.83 -30.84,30.83 -17.03,0 -30.86,-13.8 -30.86,-30.83 0,-17.04 13.83,-30.87 30.86,-30.87 17.04,0 30.84,13.83 30.84,30.87z"/>
  <path class="fil1 str0" d="M1809.31 1936.7c0,17.03 -13.8,30.83 -30.84,30.83 -17.03,0 -30.86,-13.8 -30.86,-30.83 0,-17.04 13.83,-30.87 30.86,-30.87 17.04,0 30.84,13.83 30.84,30.87z"/>
  <path class="fil0" d="M1248.11 2270.42c0,17.04 -13.83,30.84 -30.87,30.84 -17.04,0 -30.83,-13.8 -30.83,-30.84 0,-17.07 13.79,-30.87 30.83,-30.87 17.04,0 30.87,13.8 30.87,30.87z"/>
  <path class="fil1 str0" d="M1248.11 2270.42c0,17.04 -13.83,30.84 -30.87,30.84 -17.04,0 -30.83,-13.8 -30.83,-30.84 0,-17.07 13.79,-30.87 30.83,-30.87 17.04,0 30.87,13.8 30.87,30.87z"/>
  <path class="fil0" d="M1431.76 1808.43c0,17.07 -13.86,30.86 -30.86,30.86 -17.04,0 -30.84,-13.79 -30.84,-30.86 0,-17.01 13.8,-30.84 30.84,-30.84 17,0 30.86,13.83 30.86,30.84z"/>
  <path class="fil1 str0" d="M1431.76 1808.43c0,17.07 -13.86,30.86 -30.86,30.86 -17.04,0 -30.84,-13.79 -30.84,-30.86 0,-17.01 13.8,-30.84 30.84,-30.84 17,0 30.86,13.83 30.86,30.84z"/>
  <path class="fil0" d="M1219.15 1840.35c0,17.08 -13.8,30.87 -30.84,30.87 -17.04,0 -30.87,-13.79 -30.87,-30.87 0,-17 13.83,-30.83 30.87,-30.83 17.04,0 30.84,13.83 30.84,30.83z"/>
  <path class="fil1 str0" d="M1219.15 1840.35c0,17.08 -13.8,30.87 -30.84,30.87 -17.04,0 -30.87,-13.79 -30.87,-30.87 0,-17 13.83,-30.83 30.87,-30.83 17.04,0 30.84,13.83 30.84,30.83z"/>
  <path class="fil0" d="M691.57 982.5c0,17.04 -13.8,30.87 -30.8,30.87 -17.04,0 -30.87,-13.83 -30.87,-30.87 0,-17.04 13.83,-30.83 30.87,-30.83 17,0 30.8,13.79 30.8,30.83z"/>
  <path class="fil1 str0" d="M691.57 982.5c0,17.04 -13.8,30.87 -30.8,30.87 -17.04,0 -30.87,-13.83 -30.87,-30.87 0,-17.04 13.83,-30.83 30.87,-30.83 17,0 30.8,13.79 30.8,30.83z"/>
  <path class="fil0" d="M1997.51 1696.03c0,17.07 -13.75,30.87 -30.83,30.87 -17.07,0 -30.83,-13.8 -30.83,-30.87 0,-17 13.76,-30.83 30.83,-30.83 17.08,0 30.83,13.83 30.83,30.83z"/>
  <path class="fil1 str0" d="M1997.51 1696.03c0,17.07 -13.75,30.87 -30.83,30.87 -17.07,0 -30.83,-13.8 -30.83,-30.87 0,-17 13.76,-30.83 30.83,-30.83 17.08,0 30.83,13.83 30.83,30.83z"/>
  <path class="fil0" d="M264.71 1634.01c0,17.01 -13.8,30.83 -30.87,30.83 -17.04,0 -30.8,-13.82 -30.8,-30.83 0,-17.07 13.76,-30.9 30.8,-30.9 17.07,0 30.87,13.83 30.87,30.9z"/>
  <path class="fil1 str0" d="M264.71 1634.01c0,17.01 -13.8,30.83 -30.87,30.83 -17.04,0 -30.8,-13.82 -30.8,-30.83 0,-17.07 13.76,-30.9 30.8,-30.9 17.07,0 30.87,13.83 30.87,30.9z"/>
  <path class="fil0" d="M3113.99 1966.68c0,17.04 -13.83,30.87 -30.87,30.87 -17.01,0 -30.84,-13.83 -30.84,-30.87 0,-17.04 13.83,-30.83 30.84,-30.83 17.04,0 30.87,13.79 30.87,30.83z"/>
  <path class="fil1 str0" d="M3113.99 1966.68c0,17.04 -13.83,30.87 -30.87,30.87 -17.01,0 -30.84,-13.83 -30.84,-30.87 0,-17.04 13.83,-30.83 30.84,-30.83 17.04,0 30.87,13.79 30.87,30.83z"/>
  <path class="fil0" d="M3428.1 1902.79c0,17.04 -13.83,30.84 -30.87,30.84 -17.04,0 -30.83,-13.8 -30.83,-30.84 0,-17.04 13.79,-30.79 30.83,-30.79 17.04,0 30.87,13.75 30.87,30.79z"/>
  <path class="fil1 str0" d="M3428.1 1902.79c0,17.04 -13.83,30.84 -30.87,30.84 -17.04,0 -30.83,-13.8 -30.83,-30.84 0,-17.04 13.79,-30.79 30.83,-30.79 17.04,0 30.87,13.75 30.87,30.79z"/>
  <path class="fil0" d="M1288.82 3550.12c0,17.04 -13.83,30.87 -30.87,30.87 -17.04,0 -30.83,-13.83 -30.83,-30.87 0,-17.03 13.79,-30.83 30.83,-30.83 17.04,0 30.87,13.8 30.87,30.83z"/>
  <path class="fil1 str0" d="M1288.82 3550.12c0,17.04 -13.83,30.87 -30.87,30.87 -17.04,0 -30.83,-13.83 -30.83,-30.87 0,-17.03 13.79,-30.83 30.83,-30.83 17.04,0 30.87,13.8 30.87,30.83z"/>
  <path class="fil0" d="M1284.2 616.14c0,17.01 -13.8,30.83 -30.83,30.83 -17.01,0 -30.84,-13.82 -30.84,-30.83 0,-17.04 13.83,-30.87 30.84,-30.87 17.03,0 30.83,13.83 30.83,30.87z"/>
  <path class="fil1 str0" d="M1284.2 616.14c0,17.01 -13.8,30.83 -30.83,30.83 -17.01,0 -30.84,-13.82 -30.84,-30.83 0,-17.04 13.83,-30.87 30.84,-30.87 17.03,0 30.83,13.83 30.83,30.87z"/>
  <path class="fil0" d="M1714.38 1318.13c0,17.04 -13.83,30.87 -30.84,30.87 -17.07,0 -30.87,-13.83 -30.87,-30.87 0,-17.03 13.8,-30.83 30.87,-30.83 17.01,0 30.84,13.8 30.84,30.83z"/>
  <path class="fil1 str0" d="M1714.38 1318.13c0,17.04 -13.83,30.87 -30.84,30.87 -17.07,0 -30.87,-13.83 -30.87,-30.87 0,-17.03 13.8,-30.83 30.87,-30.83 17.01,0 30.84,13.8 30.84,30.83z"/>
  <path class="fil0" d="M1945.87 571.45c0,17.03 -13.83,30.83 -30.87,30.83 -17,0 -30.83,-13.8 -30.83,-30.83 0,-17.04 13.83,-30.84 30.83,-30.84 17.04,0 30.87,13.8 30.87,30.84z"/>
  <path class="fil1 str0" d="M1945.87 571.45c0,17.03 -13.83,30.83 -30.87,30.83 -17,0 -30.83,-13.8 -30.83,-30.83 0,-17.04 13.83,-30.84 30.83,-30.84 17.04,0 30.87,13.8 30.87,30.84z"/>
  <path class="fil0" d="M2657 3136.74c0,17.11 -13.83,30.87 -30.87,30.87 -17.04,0 -30.83,-13.76 -30.83,-30.87 0,-17 13.79,-30.8 30.83,-30.8 17.04,0 30.87,13.8 30.87,30.8z"/>
  <path class="fil1 str0" d="M2657 3136.74c0,17.11 -13.83,30.87 -30.87,30.87 -17.04,0 -30.83,-13.76 -30.83,-30.87 0,-17 13.79,-30.8 30.83,-30.8 17.04,0 30.87,13.8 30.87,30.8z"/>
  <path class="fil0" d="M3349.89 1383.82c0,17.04 -13.83,30.87 -30.83,30.87 -17.08,0 -30.87,-13.83 -30.87,-30.87 0,-17.04 13.79,-30.87 30.87,-30.87 17,0 30.83,13.83 30.83,30.87z"/>
  <path class="fil1 str0" d="M3349.89 1383.82c0,17.04 -13.83,30.87 -30.83,30.87 -17.08,0 -30.87,-13.83 -30.87,-30.87 0,-17.04 13.79,-30.87 30.87,-30.87 17,0 30.83,13.83 30.83,30.87z"/>
  <path class="fil0" d="M3171.49 2475.39c0,17.07 -13.87,30.86 -30.87,30.86 -17.04,0 -30.83,-13.79 -30.83,-30.86 0,-17.01 13.79,-30.84 30.83,-30.84 17,0 30.87,13.83 30.87,30.84z"/>
  <path class="fil1 str0" d="M3171.49 2475.39c0,17.07 -13.87,30.86 -30.87,30.86 -17.04,0 -30.83,-13.79 -30.83,-30.86 0,-17.01 13.79,-30.84 30.83,-30.84 17,0 30.87,13.83 30.87,30.84z"/>
  <path class="fil0" d="M1476.81 2271.98c0,17.03 -13.79,30.86 -30.79,30.86 -17.04,0 -30.91,-13.83 -30.91,-30.86 0,-17.08 13.87,-30.84 30.91,-30.84 17,0 30.79,13.76 30.79,30.84z"/>
  <path class="fil1 str0" d="M1476.81 2271.98c0,17.03 -13.79,30.86 -30.79,30.86 -17.04,0 -30.91,-13.83 -30.91,-30.86 0,-17.08 13.87,-30.84 30.91,-30.84 17,0 30.79,13.76 30.79,30.84z"/>
  <path class="fil0" d="M2939.29 2190.8c0,17.04 -13.76,30.83 -30.8,30.83 -17.04,0 -30.83,-13.79 -30.83,-30.83 0,-17.07 13.79,-30.87 30.83,-30.87 17.04,0 30.8,13.8 30.8,30.87z"/>
  <path class="fil1 str0" d="M2939.29 2190.8c0,17.04 -13.76,30.83 -30.8,30.83 -17.04,0 -30.83,-13.79 -30.83,-30.83 0,-17.07 13.79,-30.87 30.83,-30.87 17.04,0 30.8,13.8 30.8,30.87z"/>
  <path class="fil0" d="M1533.15 2494.86c0,17 -13.83,30.83 -30.86,30.83 -17.01,0 -30.84,-13.83 -30.84,-30.83 0,-17.04 13.83,-30.9 30.84,-30.9 17.03,0 30.86,13.86 30.86,30.9z"/>
  <path class="fil1 str0" d="M1533.15 2494.86c0,17 -13.83,30.83 -30.86,30.83 -17.01,0 -30.84,-13.83 -30.84,-30.83 0,-17.04 13.83,-30.9 30.84,-30.9 17.03,0 30.86,13.86 30.86,30.9z"/>
  <path class="fil0" d="M3129.65 992.63c0,17.04 -13.87,30.86 -30.87,30.86 -17.04,0 -30.83,-13.82 -30.83,-30.86 0,-17.04 13.79,-30.84 30.83,-30.84 17,0 30.87,13.8 30.87,30.84z"/>
  <path class="fil1 str0" d="M3129.65 992.63c0,17.04 -13.87,30.86 -30.87,30.86 -17.04,0 -30.83,-13.82 -30.83,-30.86 0,-17.04 13.79,-30.84 30.83,-30.84 17,0 30.87,13.8 30.87,30.84z"/>
  <path class="fil0" d="M2370.58 677.1c0,17.08 -13.8,30.87 -30.87,30.87 -17.04,0 -30.83,-13.79 -30.83,-30.87 0,-17.04 13.79,-30.83 30.83,-30.83 17.07,0 30.87,13.79 30.87,30.83z"/>
  <path class="fil1 str0" d="M2370.58 677.1c0,17.08 -13.8,30.87 -30.87,30.87 -17.04,0 -30.83,-13.79 -30.83,-30.87 0,-17.04 13.79,-30.83 30.83,-30.83 17.07,0 30.87,13.79 30.87,30.83z"/>
  <path class="fil0" d="M2791.72 708.89c0,17.07 -13.79,30.87 -30.83,30.87 -17.04,0 -30.87,-13.8 -30.87,-30.87 0,-17.04 13.83,-30.87 30.87,-30.87 17.04,0 30.83,13.83 30.83,30.87z"/>
  <path class="fil1 str0" d="M2791.72 708.89c0,17.07 -13.79,30.87 -30.83,30.87 -17.04,0 -30.87,-13.8 -30.87,-30.87 0,-17.04 13.83,-30.87 30.87,-30.87 17.04,0 30.83,13.83 30.83,30.87z"/>
  <path class="fil0" d="M2071.46 2658.48c0,17 -13.8,30.87 -30.87,30.87 -17.01,0 -30.87,-13.87 -30.87,-30.87 0,-17.08 13.86,-30.87 30.87,-30.87 17.07,0 30.87,13.79 30.87,30.87z"/>
  <path class="fil1 str0" d="M2071.46 2658.48c0,17 -13.8,30.87 -30.87,30.87 -17.01,0 -30.87,-13.87 -30.87,-30.87 0,-17.08 13.86,-30.87 30.87,-30.87 17.07,0 30.87,13.79 30.87,30.87z"/>
  <path class="fil0" d="M702.01 3153.25c0,17.04 -13.76,30.87 -30.83,30.87 -17.01,0 -30.8,-13.83 -30.8,-30.87 0,-17 13.79,-30.83 30.8,-30.83 17.07,0 30.83,13.83 30.83,30.83z"/>
  <path class="fil1 str0" d="M702.01 3153.25c0,17.04 -13.76,30.87 -30.83,30.87 -17.01,0 -30.8,-13.83 -30.8,-30.87 0,-17 13.79,-30.83 30.8,-30.83 17.07,0 30.83,13.83 30.83,30.83z"/>
  <path class="fil0" d="M3040.57 823.61c0,17.04 -13.79,30.83 -30.87,30.83 -17,0 -30.83,-13.79 -30.83,-30.83 0,-17 13.83,-30.83 30.83,-30.83 17.08,0 30.87,13.83 30.87,30.83z"/>
  <path class="fil1 str0" d="M3040.57 823.61c0,17.04 -13.79,30.83 -30.87,30.83 -17,0 -30.83,-13.79 -30.83,-30.83 0,-17 13.83,-30.83 30.83,-30.83 17.08,0 30.87,13.83 30.87,30.83z"/>
  <path class="fil0" d="M2135.42 1519.11c0,17.08 -13.83,30.87 -30.87,30.87 -17.04,0 -30.87,-13.79 -30.87,-30.87 0,-17.04 13.83,-30.83 30.87,-30.83 17.04,0 30.87,13.79 30.87,30.83z"/>
  <path class="fil1 str0" d="M2135.42 1519.11c0,17.08 -13.83,30.87 -30.87,30.87 -17.04,0 -30.87,-13.79 -30.87,-30.87 0,-17.04 13.83,-30.83 30.87,-30.83 17.04,0 30.87,13.79 30.87,30.83z"/>
  <path class="fil0" d="M605.7 2744.45c0,17.07 -13.79,30.87 -30.83,30.87 -17.08,0 -30.84,-13.8 -30.84,-30.87 0,-17.04 13.76,-30.87 30.84,-30.87 17.04,0 30.83,13.83 30.83,30.87z"/>
  <path class="fil1 str0" d="M605.7 2744.45c0,17.07 -13.79,30.87 -30.83,30.87 -17.08,0 -30.84,-13.8 -30.84,-30.87 0,-17.04 13.76,-30.87 30.84,-30.87 17.04,0 30.83,13.83 30.83,30.87z"/>
  <path class="fil0" d="M3266.6 2063.55c0,17.04 -13.8,30.87 -30.84,30.87 -17,0 -30.83,-13.83 -30.83,-30.87 0,-17.04 13.83,-30.86 30.83,-30.86 17.04,0 30.84,13.82 30.84,30.86z"/>
  <path class="fil1 str0" d="M3266.6 2063.55c0,17.04 -13.8,30.87 -30.84,30.87 -17,0 -30.83,-13.83 -30.83,-30.87 0,-17.04 13.83,-30.86 30.83,-30.86 17.04,0 30.84,13.82 30.84,30.86z"/>
  <path class="fil0" d="M2282.42 1334.79c0,17.03 -13.8,30.83 -30.83,30.83 -17.04,0 -30.84,-13.8 -30.84,-30.83 0,-17.04 13.8,-30.84 30.84,-30.84 17.03,0 30.83,13.8 30.83,30.84z"/>
  <path class="fil1 str0" d="M2282.42 1334.79c0,17.03 -13.8,30.83 -30.83,30.83 -17.04,0 -30.84,-13.8 -30.84,-30.83 0,-17.04 13.8,-30.84 30.84,-30.84 17.03,0 30.83,13.8 30.83,30.84z"/>
  <path class="fil0" d="M1450.36 1238.34c0,17.04 -13.8,30.86 -30.87,30.86 -17.04,0 -30.83,-13.82 -30.83,-30.86 0,-17.04 13.79,-30.87 30.83,-30.87 17.07,0 30.87,13.83 30.87,30.87z"/>
  <path class="fil1 str0" d="M1450.36 1238.34c0,17.04 -13.8,30.86 -30.87,30.86 -17.04,0 -30.83,-13.82 -30.83,-30.86 0,-17.04 13.79,-30.87 30.83,-30.87 17.07,0 30.87,13.83 30.87,30.87z"/>
  <path class="fil0" d="M839.66 2422.68c0,17.04 -13.79,30.83 -30.83,30.83 -17.07,0 -30.87,-13.79 -30.87,-30.83 0,-17.04 13.8,-30.87 30.87,-30.87 17.04,0 30.83,13.83 30.83,30.87z"/>
  <path class="fil1 str0" d="M839.66 2422.68c0,17.04 -13.79,30.83 -30.83,30.83 -17.07,0 -30.87,-13.79 -30.87,-30.83 0,-17.04 13.8,-30.87 30.87,-30.87 17.04,0 30.83,13.83 30.83,30.87z"/>
  <path class="fil0" d="M2624.47 558.78c0,17 -13.83,30.83 -30.83,30.83 -17.04,0 -30.87,-13.83 -30.87,-30.83 0,-17.07 13.83,-30.87 30.87,-30.87 17,0 30.83,13.8 30.83,30.87z"/>
  <path class="fil1 str0" d="M2624.47 558.78c0,17 -13.83,30.83 -30.83,30.83 -17.04,0 -30.87,-13.83 -30.87,-30.83 0,-17.07 13.83,-30.87 30.87,-30.87 17,0 30.83,13.8 30.83,30.87z"/>
  <path class="fil0" d="M2102.5 1904.77c0,17.07 -13.79,30.87 -30.83,30.87 -17.04,0 -30.87,-13.8 -30.87,-30.87 0,-17.01 13.83,-30.83 30.87,-30.83 17.04,0 30.83,13.82 30.83,30.83z"/>
  <path class="fil1 str0" d="M2102.5 1904.77c0,17.07 -13.79,30.87 -30.83,30.87 -17.04,0 -30.87,-13.8 -30.87,-30.87 0,-17.01 13.83,-30.83 30.87,-30.83 17.04,0 30.83,13.82 30.83,30.83z"/>
  <path class="fil0" d="M1255.91 1266.21c0,17.03 -13.83,30.83 -30.87,30.83 -17.04,0 -30.87,-13.8 -30.87,-30.83 0,-17.08 13.83,-30.87 30.87,-30.87 17.04,0 30.87,13.79 30.87,30.87z"/>
  <path class="fil1 str0" d="M1255.91 1266.21c0,17.03 -13.83,30.83 -30.87,30.83 -17.04,0 -30.87,-13.8 -30.87,-30.83 0,-17.08 13.83,-30.87 30.87,-30.87 17.04,0 30.87,13.79 30.87,30.87z"/>
  <path class="fil0" d="M3212.23 2898.47c0,17.08 -13.82,30.84 -30.86,30.84 -17.04,0 -30.8,-13.76 -30.8,-30.84 0,-17 13.76,-30.86 30.8,-30.86 17.04,0 30.86,13.86 30.86,30.86z"/>
  <path class="fil1 str0" d="M3212.23 2898.47c0,17.08 -13.82,30.84 -30.86,30.84 -17.04,0 -30.8,-13.76 -30.8,-30.84 0,-17 13.76,-30.86 30.8,-30.86 17.04,0 30.86,13.86 30.86,30.86z"/>
  <path class="fil0" d="M2439.65 487.48c0,17.04 -13.79,30.87 -30.83,30.87 -17.04,0 -30.87,-13.83 -30.87,-30.87 0,-17.04 13.83,-30.83 30.87,-30.83 17.04,0 30.83,13.79 30.83,30.83z"/>
  <path class="fil1 str0" d="M2439.65 487.48c0,17.04 -13.79,30.87 -30.83,30.87 -17.04,0 -30.87,-13.83 -30.87,-30.87 0,-17.04 13.83,-30.83 30.87,-30.83 17.04,0 30.83,13.79 30.83,30.83z"/>
  <path class="fil0" d="M1447.18 1472.19c0,17.11 -13.79,30.91 -30.87,30.91 -17,0 -30.83,-13.8 -30.83,-30.91 0,-17 13.83,-30.79 30.83,-30.79 17.08,0 30.87,13.79 30.87,30.79z"/>
  <path class="fil1 str0" d="M1447.18 1472.19c0,17.11 -13.79,30.91 -30.87,30.91 -17,0 -30.83,-13.8 -30.83,-30.91 0,-17 13.83,-30.79 30.83,-30.79 17.08,0 30.87,13.79 30.87,30.79z"/>
  <path class="fil0" d="M1105.41 2075.51c0,17.04 -13.86,30.87 -30.83,30.87 -17.08,0 -30.91,-13.83 -30.91,-30.87 0,-17 13.83,-30.83 30.91,-30.83 16.97,0 30.83,13.83 30.83,30.83z"/>
  <path class="fil1 str0" d="M1105.41 2075.51c0,17.04 -13.86,30.87 -30.83,30.87 -17.08,0 -30.91,-13.83 -30.91,-30.87 0,-17 13.83,-30.83 30.91,-30.83 16.97,0 30.83,13.83 30.83,30.83z"/>
  <path class="fil0" d="M950.82 3342.34c0,17.07 -13.79,30.83 -30.83,30.83 -17.04,0 -30.83,-13.76 -30.83,-30.83 0,-17.04 13.79,-30.87 30.83,-30.87 17.04,0 30.83,13.83 30.83,30.87z"/>
  <path class="fil1 str0" d="M950.82 3342.34c0,17.07 -13.79,30.83 -30.83,30.83 -17.04,0 -30.83,-13.76 -30.83,-30.83 0,-17.04 13.79,-30.87 30.83,-30.87 17.04,0 30.83,13.83 30.83,30.87z"/>
  <path class="fil0" d="M3484.76 2121.06c0,17.04 -13.8,30.86 -30.84,30.86 -17.07,0 -30.83,-13.82 -30.83,-30.86 0,-17.04 13.76,-30.87 30.83,-30.87 17.04,0 30.84,13.83 30.84,30.87z"/>
  <path class="fil1 str0" d="M3484.76 2121.06c0,17.04 -13.8,30.86 -30.84,30.86 -17.07,0 -30.83,-13.82 -30.83,-30.86 0,-17.04 13.76,-30.87 30.83,-30.87 17.04,0 30.84,13.83 30.84,30.87z"/>
  <path class="fil0" d="M2585.84 3442.53c0,17.04 -13.79,30.87 -30.83,30.87 -17.04,0 -30.87,-13.83 -30.87,-30.87 0,-17.04 13.83,-30.87 30.87,-30.87 17.04,0 30.83,13.83 30.83,30.87z"/>
  <path class="fil1 str0" d="M2585.84 3442.53c0,17.04 -13.79,30.87 -30.83,30.87 -17.04,0 -30.87,-13.83 -30.87,-30.87 0,-17.04 13.83,-30.87 30.87,-30.87 17.04,0 30.83,13.83 30.83,30.87z"/>
  <path class="fil0" d="M1463.27 3546.63c0,17.08 -13.8,30.83 -30.83,30.83 -17.01,0 -30.84,-13.75 -30.84,-30.83 0,-17 13.83,-30.83 30.84,-30.83 17.03,0 30.83,13.83 30.83,30.83z"/>
  <path class="fil1 str0" d="M1463.27 3546.63c0,17.08 -13.8,30.83 -30.83,30.83 -17.01,0 -30.84,-13.75 -30.84,-30.83 0,-17 13.83,-30.83 30.84,-30.83 17.03,0 30.83,13.83 30.83,30.83z"/>
  <path class="fil0" d="M1057.5 629.37c0,17.01 -13.83,30.87 -30.87,30.87 -17.03,0 -30.83,-13.86 -30.83,-30.87 0,-17.07 13.8,-30.83 30.83,-30.83 17.04,0 30.87,13.76 30.87,30.83z"/>
  <path class="fil1 str0" d="M1057.5 629.37c0,17.01 -13.83,30.87 -30.87,30.87 -17.03,0 -30.83,-13.86 -30.83,-30.87 0,-17.07 13.8,-30.83 30.83,-30.83 17.04,0 30.87,13.76 30.87,30.83z"/>
  <path class="fil0" d="M1607.41 2096.12c0,17.03 -13.83,30.86 -30.79,30.86 -17.04,0 -30.87,-13.83 -30.87,-30.86 0,-17.04 13.83,-30.87 30.87,-30.87 16.96,0 30.79,13.83 30.79,30.87z"/>
  <path class="fil1 str0" d="M1607.41 2096.12c0,17.03 -13.83,30.86 -30.79,30.86 -17.04,0 -30.87,-13.83 -30.87,-30.86 0,-17.04 13.83,-30.87 30.87,-30.87 16.96,0 30.79,13.83 30.79,30.87z"/>
  <path class="fil0" d="M1407.49 3331.19c0,17.04 -13.86,30.87 -30.86,30.87 -17.04,0 -30.8,-13.83 -30.8,-30.87 0,-17.04 13.76,-30.83 30.8,-30.83 17,0 30.86,13.79 30.86,30.83z"/>
  <path class="fil1 str0" d="M1407.49 3331.19c0,17.04 -13.86,30.87 -30.86,30.87 -17.04,0 -30.8,-13.83 -30.8,-30.87 0,-17.04 13.76,-30.83 30.8,-30.83 17,0 30.86,13.79 30.86,30.83z"/>
  <path class="fil0" d="M1110.49 3307.73c0,17.04 -13.79,30.83 -30.87,30.83 -17.04,0 -30.83,-13.79 -30.83,-30.83 0,-17.04 13.79,-30.87 30.83,-30.87 17.08,0 30.87,13.83 30.87,30.87z"/>
  <path class="fil1 str0" d="M1110.49 3307.73c0,17.04 -13.79,30.83 -30.87,30.83 -17.04,0 -30.83,-13.79 -30.83,-30.83 0,-17.04 13.79,-30.87 30.83,-30.87 17.08,0 30.87,13.83 30.87,30.87z"/>
  <path class="fil0" d="M2731.72 2991.57c0,17.01 -13.8,30.87 -30.87,30.87 -17.04,0 -30.84,-13.86 -30.84,-30.87 0,-17 13.8,-30.83 30.84,-30.83 17.07,0 30.87,13.83 30.87,30.83z"/>
  <path class="fil1 str0" d="M2731.72 2991.57c0,17.01 -13.8,30.87 -30.87,30.87 -17.04,0 -30.84,-13.86 -30.84,-30.87 0,-17 13.8,-30.83 30.84,-30.83 17.07,0 30.87,13.83 30.87,30.83z"/>
  <path class="fil0" d="M1358.85 2048.67c0,17.04 -13.83,30.83 -30.91,30.83 -17,0 -30.8,-13.79 -30.8,-30.83 0,-17.04 13.8,-30.84 30.8,-30.84 17.08,0 30.91,13.8 30.91,30.84z"/>
  <path class="fil1 str0" d="M1358.85 2048.67c0,17.04 -13.83,30.83 -30.91,30.83 -17,0 -30.8,-13.79 -30.8,-30.83 0,-17.04 13.8,-30.84 30.8,-30.84 17.08,0 30.91,13.8 30.91,30.84z"/>
 </g>
</svg>
