<svg xmlns="http://www.w3.org/2000/svg" viewBox="-2 -2 342.3 196.3"><circle fill="#21579B" cx="243" cy="96.6" r="96.6"/><circle fill="#FF433D" cx="95.8" cy="96.6" r="96.6"/><g fill="#FFF"><path d="M40.9 89.7c6.9.9 11.7 4.2 11.7 10.2 0 4.6-2.4 7.9-5.7 9.8-3.3 2-8.1 2.8-13.2 2.8H18.4v-2.2c4.8-.4 5.2-1 5.2-6.4V78.7c0-5.3-.4-5.9-4.9-6.3v-2.2h17.7c4.9 0 7.9.7 10.4 2.3 2.2 1.5 3.6 4.1 3.6 7.3 0 6-4.9 8.8-9.4 9.6v.3zm-7.6-.8c5.7 0 8.2-2.4 8.2-8 0-5.9-3.3-8.2-6.5-8.2-1.4 0-2.1.3-2.5.7-.5.4-.7 1.4-.7 3v12.4h1.5zM31.8 104c0 4.6 1.1 5.9 4.2 5.9 3.4-.1 7.3-2.7 7.3-9.4 0-6.1-3.6-9.1-10.2-9.1h-1.3V104zM87.6 80.7c-.8-3.3-1.5-5.3-2.4-6.4-1.1-1.1-2.7-1.5-5.3-1.5h-3V104c0 5.4.5 5.9 5.7 6.3v2.2H63v-2.2c4.9-.4 5.5-.9 5.5-6.3V72.9h-2.4c-3.6 0-5 .5-6 1.7-.9 1.1-1.6 3.3-2.3 6.2h-2.2c.3-4.4.7-8.9.7-12.2h1.6c1 1.3 1.7 1.6 3.5 1.6h22.8c1.5 0 2.4-.4 3.4-1.6h1.6c.1 2.7.4 8 .7 12l-2.3.1zM127.7 102.1c-.8 2.9-2.1 7.5-3.1 9.8-1.6.5-6.5 1.6-10.6 1.6-15.4 0-21.4-11.1-21.4-21.4 0-13.4 9-22.7 23-22.7 4.2 0 8.2 1 10 1.4.5 3.6.8 6.6 1.1 10.2l-2.2.5c-2-7.1-5.8-9.4-10.2-9.4-7.5 0-12.1 8.9-12.1 18.7 0 11.8 5.3 20 12.5 20 4.7 0 8-3.6 10.8-9.4l2.2.7zM145.7 99.7H131l.9-4.8h14.7l-.9 4.8zM172.5 112.6v-2.2c3.5-.5 3.8-1.3 2.8-4.5-.6-2-1.4-4.6-2.2-6.8h-11.3c-.5 1.7-1.3 3.8-2 6.4-1 3.5-.7 4.3 3.7 4.9v2.2h-13.7v-2.2c3.8-.4 4.8-1.1 6.5-6.1l12.4-34.2 3.1-.7c3.9 11.4 7.5 22.7 11.5 34.1 2 5.9 2.8 6.6 6.5 7v2.2h-17.3zm-4.9-31.2h-.2c-1.7 4.9-3 9.6-4.6 14.3h9.2l-4.4-14.3zM191.8 112.6v-2c3.6-.5 3.9-.9 3.9-5.1V75.6c0-4-.1-4.2-3.6-4.7v-1.8c3.5-.4 8.1-1.3 11.7-2.2v38.6c0 4.4.3 4.7 4 5.1v2h-16zM225.3 83.6c1-.7 1.9-1 3-1 7.3 0 11 6.5 11 12.7 0 9.8-6.7 16.1-14.8 18-1.7 0-2.9-.4-3.8-.8v7.7c0 4 .4 4.4 5 4.8v2h-17.2v-2c3.8-.3 4.2-.7 4.2-4.7V91.5c0-3.9-.3-4.2-3.6-4.6v-1.8c3.8-.7 7.7-1.8 11.7-3.1v4.6l4.5-3zm-4.5 24.1c1.2 1.4 3.1 2.6 4.8 2.6 2.8 0 5.6-3.6 5.6-11.8 0-7.9-3.6-11-6.7-11-1.5 0-2.7.6-3.6 1.4v18.8zM259.3 112.6v-2c2.8-.5 3-.8 3-4.6V93.9c0-4.8-1.8-6.5-4.3-6.5-1.5 0-3 .5-4.3 1.8V106c0 3.9.3 4.2 2.8 4.6v2h-14.8v-2c3.6-.3 4-.6 4-4.8V75.3c0-3.9-.2-3.9-3.6-4.3v-1.9c3.5-.4 7.7-1.3 11.6-2.2v19.9c2-2 4.9-4.2 8.2-4.2 5.5 0 8.4 3.8 8.4 10.6v12.5c0 4.2.3 4.3 3.4 4.8v2h-14.4zM297.1 113.4c-1.6 0-2.9-.6-3.7-1.4-.9-.8-1.3-1.6-1.5-2.2-2 1.5-4.9 3.6-6.5 3.6-5.3 0-8.4-4.4-8.4-8.2 0-3.4 1.5-5.3 4.7-6.5 3-1.2 8.4-3 9.9-4.4v-2.7c0-3.8-1.7-5.8-3.6-5.8-1 0-1.6.3-2.4 1.3-.7.9-1.2 2.3-1.6 4.4-.4 1.6-1.2 2.1-2.4 2.1-1.7 0-4.2-1.3-4.2-3.2 0-1.1.7-2 2.2-3 2.6-1.8 6.7-4.1 10.6-4.7 2.6 0 4.7.9 6.4 2.2 2.2 1.9 2.8 4.6 2.8 7.7v11.8c0 2.9.9 3.8 2 3.8.9 0 1.5-.2 2-.4l.6 2-6.9 3.6zm-5.6-16.5c-1.2.7-2.3 1.4-3.5 2.1-1.8 1.1-2.8 2.2-2.8 4.4 0 3.2 2.2 4.9 4 4.9.9 0 1.6-.3 2.3-.9V96.9z"/></g></svg>